<?xml version="1.0" encoding="UTF-8"?>
<!DOCTYPE svg PUBLIC "-//W3C//DTD SVG 1.1//EN" "http://www.w3.org/Graphics/SVG/1.1/DTD/svg11.dtd">
<!-- Creator: CorelDRAW -->
<svg xmlns="http://www.w3.org/2000/svg" xml:space="preserve" width="600px" height="410px" version="1.1" style="shape-rendering:geometricPrecision; text-rendering:geometricPrecision; image-rendering:optimizeQuality; fill-rule:evenodd; clip-rule:evenodd"
viewBox="0 0 450.78 308.26"
 xmlns:xlink="http://www.w3.org/1999/xlink"
 xmlns:xodm="http://www.corel.com/coreldraw/odm/2003">
 <defs>
  <style type="text/css">
   <![CDATA[
    .str2 {stroke:#FEFEFE;stroke-width:1.03;stroke-miterlimit:2.61313;stroke-opacity:0.400000}
    .str3 {stroke:#B0B0B0;stroke-width:1.03;stroke-miterlimit:2.61313;stroke-opacity:0.400000}
    .str1 {stroke:#2B2A29;stroke-width:2.05;stroke-miterlimit:2.61313}
    .str0 {stroke:#2B2A29;stroke-width:0.77;stroke-miterlimit:2.61313}
    .fil1 {fill:none}
    .fil0 {fill:#2B2A29;fill-rule:nonzero}
    .fil3 {fill:black;fill-opacity:0.000000}
    .fil2 {fill:#1D1F21;fill-opacity:0.400000}
   ]]>
  </style>
 </defs>
 <g id="Слой_x0020_1">
  <metadata id="CorelCorpID_0Corel-Layer"/>
  <g>
   <path class="fil0" d="M7.7 0l7.7 17.97 0 0 -0.48 -0.23 -0.48 -0.22 -0.48 -0.2 -0.48 -0.19 -0.48 -0.17 -0.48 -0.16 -0.49 -0.15 -0.48 -0.12 -0.48 -0.12 -0.48 -0.09 -0.48 -0.09 -0.48 -0.06 -0.48 -0.06 -0.49 -0.03 -0.48 -0.03 -0.48 0 -0.48 0 -0.48 0.03 -0.48 0.03 -0.48 0.06 -0.48 0.06 -0.49 0.09 -0.48 0.09 -0.48 0.12 -0.48 0.12 -0.48 0.15 -0.48 0.16 -0.48 0.17 -0.49 0.19 -0.48 0.2 -0.48 0.22 -0.48 0.23 7.7 -17.97zm-1.28 15.84l0 -6.81 2.57 0 0 6.81 -2.57 0z"/>
  </g>
  <polyline class="fil1 str0" points="7.7,15.84 7.7,300.55 434.93,300.55 "/>
  <g>
   <path class="fil0" d="M450.78 300.55l-17.98 7.71 0 0 0.24 -0.49 0.22 -0.48 0.2 -0.48 0.19 -0.48 0.17 -0.48 0.16 -0.48 0.14 -0.48 0.13 -0.49 0.11 -0.48 0.1 -0.48 0.08 -0.48 0.07 -0.48 0.05 -0.48 0.04 -0.48 0.02 -0.48 0.01 -0.49 -0.01 -0.48 -0.02 -0.48 -0.04 -0.48 -0.05 -0.48 -0.07 -0.48 -0.08 -0.48 -0.1 -0.49 -0.11 -0.48 -0.13 -0.48 -0.14 -0.48 -0.16 -0.48 -0.17 -0.48 -0.19 -0.48 -0.2 -0.49 -0.22 -0.48 -0.24 -0.48 17.98 7.7zm-15.85 -1.28l6.81 0 0 2.57 -6.81 0 0 -2.57z"/>
  </g>
  <polyline class="fil1 str1" points="56.78,244.66 119.19,150.66 118.61,151.54 "/>
  <path class="fil1 str1" d="M127.52 143.63l99.48 -50.12m7.97 2.87l42.17 96.62"/>
  <line class="fil1 str1" x1="283.07" y1="193.55" x2="368.3" y2= "68.08" />
  <path class="fil2 str2" d="M53.37 243.63c3.4,0 6.16,2.76 6.16,6.17 0,3.4 -2.76,6.16 -6.16,6.16 -3.4,0 -6.16,-2.76 -6.16,-6.16 0,-3.41 2.76,-6.17 6.16,-6.17z"/>
  <path class="fil2 str2" d="M122.01 140.24c3.41,0 6.17,2.76 6.17,6.16 0,3.41 -2.76,6.17 -6.17,6.17 -3.4,0 -6.16,-2.76 -6.16,-6.17 0,-3.4 2.76,-6.16 6.16,-6.16z"/>
  <path class="fil2 str3" d="M232.5 84.57c3.4,0 6.16,2.76 6.16,6.16 0,3.41 -2.76,6.16 -6.16,6.16 -3.4,0 -6.16,-2.75 -6.16,-6.16 0,-3.4 2.76,-6.16 6.16,-6.16z"/>
  <path class="fil2 str2" d="M279.61 192.49c3.4,0 6.16,2.76 6.16,6.16 0,3.4 -2.76,6.16 -6.16,6.16 -3.4,0 -6.16,-2.76 -6.16,-6.16 0,-3.4 2.76,-6.16 6.16,-6.16z"/>
  <path class="fil2 str2" d="M371.76 56.82c3.4,0 6.16,2.76 6.16,6.16 0,3.41 -2.76,6.17 -6.16,6.17 -3.4,0 -6.16,-2.76 -6.16,-6.17 0,-3.4 2.76,-6.16 6.16,-6.16z"/>
  <path class="fil0" d="M36.1 279.5c-0.12,0.15 -0.24,0.25 -0.37,0.32 -0.13,0.06 -0.26,0.09 -0.4,0.09 -0.21,0 -0.41,-0.05 -0.61,-0.15 -0.21,-0.11 -0.42,-0.27 -0.65,-0.49 -0.33,-0.31 -0.63,-0.68 -0.91,-1.11 -0.29,-0.43 -0.54,-0.89 -0.77,-1.38 -0.23,-0.49 -0.44,-1.02 -0.61,-1.57 -0.18,-0.55 -0.34,-1.11 -0.46,-1.69 -0.13,-0.58 -0.22,-1.16 -0.28,-1.75 -0.07,-0.59 -0.1,-1.17 -0.1,-1.73 0,-1.09 0.1,-2.16 0.28,-3.23 0.19,-1.07 0.47,-2.1 0.85,-3.11 0.37,-1.01 0.84,-1.98 1.39,-2.91 0.56,-0.93 1.2,-1.81 1.94,-2.64l0.45 0.36c-0.61,0.75 -1.14,1.55 -1.6,2.41 -0.47,0.86 -0.86,1.75 -1.17,2.68 -0.31,0.93 -0.55,1.89 -0.7,2.87 -0.16,0.98 -0.24,1.97 -0.24,2.97 0,0.59 0.03,1.19 0.09,1.81 0.06,0.61 0.16,1.22 0.29,1.83 0.13,0.61 0.3,1.2 0.51,1.79 0.2,0.59 0.45,1.16 0.74,1.7 0.3,0.54 0.64,1.05 1.02,1.53 0.38,0.48 0.81,0.92 1.29,1.3l0.02 0.1z"/>
  <path id="_1" class="fil0" d="M74.39 258.57c0.12,-0.15 0.25,-0.26 0.37,-0.32 0.13,-0.06 0.26,-0.09 0.4,-0.09 0.21,0 0.41,0.05 0.61,0.15 0.21,0.11 0.42,0.27 0.65,0.48 0.33,0.33 0.63,0.7 0.91,1.12 0.28,0.43 0.54,0.88 0.76,1.38 0.23,0.49 0.44,1.02 0.62,1.57 0.18,0.55 0.34,1.11 0.46,1.69 0.12,0.57 0.22,1.15 0.28,1.74 0.07,0.59 0.1,1.17 0.1,1.74 0,1.09 -0.09,2.17 -0.28,3.23 -0.19,1.06 -0.47,2.1 -0.85,3.11 -0.37,1 -0.83,1.98 -1.39,2.91 -0.55,0.93 -1.2,1.81 -1.94,2.64l-0.45 -0.36c0.61,-0.75 1.15,-1.56 1.6,-2.41 0.47,-0.86 0.86,-1.76 1.17,-2.69 0.31,-0.93 0.55,-1.88 0.71,-2.86 0.15,-0.99 0.23,-1.98 0.23,-2.97 0,-0.6 -0.03,-1.19 -0.09,-1.81 -0.06,-0.61 -0.16,-1.22 -0.29,-1.83 -0.13,-0.61 -0.3,-1.21 -0.51,-1.79 -0.21,-0.59 -0.46,-1.16 -0.75,-1.69 -0.29,-0.55 -0.63,-1.06 -1.01,-1.54 -0.38,-0.48 -0.81,-0.91 -1.29,-1.3l-0.02 -0.1z"/>
  <path id="_2" class="fil0" d="M36.82 266.88c0.29,-0.1 0.56,-0.18 0.83,-0.27 0.26,-0.07 0.5,-0.14 0.71,-0.2 0.22,-0.06 0.4,-0.11 0.56,-0.14 0.16,-0.02 0.28,-0.04 0.38,-0.04 0.13,0 0.25,0.02 0.36,0.06 0.12,0.04 0.23,0.11 0.34,0.22 0.11,0.11 0.21,0.26 0.32,0.46 0.1,0.2 0.2,0.45 0.31,0.76 0.13,0.37 0.25,0.73 0.38,1.06 0.13,0.33 0.25,0.66 0.37,1 0.27,-0.54 0.54,-1.03 0.8,-1.48 0.27,-0.44 0.54,-0.82 0.82,-1.13 0.27,-0.31 0.55,-0.56 0.83,-0.73 0.28,-0.17 0.56,-0.26 0.86,-0.26 0.19,0 0.36,0.03 0.5,0.09 0.15,0.06 0.27,0.13 0.37,0.22 0.1,0.1 0.17,0.21 0.22,0.34 0.04,0.12 0.07,0.25 0.07,0.38 0,0.18 -0.04,0.35 -0.13,0.53 -0.09,0.18 -0.23,0.33 -0.41,0.45l-0.05 0c-0.08,-0.1 -0.15,-0.17 -0.24,-0.23 -0.08,-0.05 -0.16,-0.1 -0.25,-0.13 -0.08,-0.03 -0.17,-0.05 -0.25,-0.07 -0.08,0 -0.16,-0.01 -0.24,-0.01 -0.25,0 -0.48,0.07 -0.71,0.21 -0.23,0.15 -0.46,0.34 -0.67,0.6 -0.22,0.25 -0.43,0.55 -0.63,0.89 -0.21,0.34 -0.41,0.72 -0.61,1.13 0.19,0.54 0.38,1.03 0.55,1.44 0.16,0.42 0.32,0.78 0.47,1.08 0.14,0.31 0.29,0.56 0.43,0.76 0.14,0.21 0.28,0.37 0.42,0.49 0.14,0.13 0.3,0.21 0.45,0.27 0.16,0.05 0.33,0.07 0.51,0.07 0.13,0 0.25,-0.01 0.36,-0.01 0.1,-0.01 0.21,-0.03 0.31,-0.04 0.11,-0.02 0.21,-0.05 0.33,-0.08 0.11,-0.04 0.24,-0.08 0.38,-0.13l0.13 0.36c-0.21,0.14 -0.43,0.27 -0.66,0.39 -0.23,0.11 -0.46,0.21 -0.7,0.3 -0.24,0.08 -0.47,0.14 -0.69,0.19 -0.23,0.05 -0.44,0.07 -0.63,0.07 -0.28,0 -0.52,-0.07 -0.74,-0.2 -0.22,-0.14 -0.43,-0.35 -0.62,-0.64 -0.2,-0.29 -0.39,-0.66 -0.59,-1.11 -0.2,-0.46 -0.42,-1 -0.67,-1.64 -0.29,0.54 -0.59,1.03 -0.88,1.47 -0.3,0.45 -0.59,0.83 -0.89,1.15 -0.29,0.32 -0.59,0.57 -0.89,0.75 -0.29,0.18 -0.6,0.26 -0.9,0.26 -0.18,0 -0.35,-0.02 -0.49,-0.07 -0.13,-0.05 -0.25,-0.12 -0.35,-0.2 -0.09,-0.09 -0.16,-0.19 -0.21,-0.3 -0.05,-0.11 -0.07,-0.23 -0.07,-0.35 0,-0.15 0.03,-0.29 0.09,-0.44 0.07,-0.15 0.16,-0.29 0.29,-0.43 0.23,0.09 0.43,0.15 0.61,0.18 0.18,0.03 0.34,0.05 0.49,0.05 0.27,0 0.53,-0.07 0.78,-0.2 0.25,-0.14 0.49,-0.33 0.73,-0.58 0.24,-0.25 0.47,-0.55 0.7,-0.9 0.23,-0.35 0.47,-0.75 0.71,-1.18 -0.08,-0.2 -0.16,-0.41 -0.23,-0.63 -0.08,-0.21 -0.17,-0.44 -0.25,-0.68 -0.1,-0.24 -0.19,-0.5 -0.29,-0.77 -0.09,-0.27 -0.19,-0.56 -0.3,-0.86 -0.1,-0.26 -0.2,-0.47 -0.29,-0.63 -0.1,-0.17 -0.2,-0.3 -0.31,-0.39 -0.1,-0.09 -0.22,-0.16 -0.35,-0.19 -0.12,-0.04 -0.26,-0.05 -0.41,-0.05 -0.13,0 -0.29,0.01 -0.48,0.05 -0.18,0.03 -0.38,0.07 -0.6,0.11l-0.09 -0.45z"/>
  <path id="_3" class="fil0" d="M52.09 278.38c0.26,-0.13 0.5,-0.29 0.71,-0.49 0.22,-0.2 0.41,-0.42 0.57,-0.65 0.16,-0.23 0.28,-0.47 0.37,-0.72 0.1,-0.24 0.14,-0.48 0.14,-0.7 0,-0.19 -0.02,-0.34 -0.08,-0.46 -0.05,-0.12 -0.11,-0.21 -0.18,-0.3 -0.07,-0.08 -0.16,-0.15 -0.25,-0.2 -0.08,-0.07 -0.17,-0.13 -0.24,-0.2 -0.07,-0.07 -0.14,-0.15 -0.19,-0.25 -0.05,-0.09 -0.07,-0.22 -0.07,-0.38 0,-0.13 0.02,-0.26 0.07,-0.38 0.05,-0.12 0.12,-0.23 0.2,-0.32 0.09,-0.1 0.19,-0.17 0.31,-0.22 0.12,-0.06 0.26,-0.08 0.41,-0.08 0.2,0 0.39,0.04 0.55,0.13 0.16,0.1 0.29,0.22 0.39,0.37 0.11,0.15 0.19,0.33 0.24,0.52 0.05,0.19 0.07,0.38 0.07,0.58 0,0.34 -0.05,0.7 -0.17,1.1 -0.11,0.38 -0.29,0.76 -0.52,1.14 -0.22,0.37 -0.51,0.72 -0.85,1.05 -0.34,0.33 -0.74,0.6 -1.19,0.83l-0.29 -0.37z"/>
  <path id="_4" class="fil0" d="M63.88 275.48c-0.11,-0.41 -0.23,-0.83 -0.35,-1.27 -0.13,-0.44 -0.25,-0.88 -0.38,-1.33 -0.13,-0.45 -0.26,-0.88 -0.39,-1.32 -0.13,-0.43 -0.25,-0.84 -0.37,-1.23 -0.12,-0.4 -0.24,-0.76 -0.34,-1.09 -0.11,-0.33 -0.21,-0.62 -0.29,-0.86 -0.09,-0.25 -0.18,-0.46 -0.26,-0.61 -0.08,-0.17 -0.17,-0.29 -0.25,-0.38 -0.1,-0.09 -0.19,-0.15 -0.29,-0.19 -0.09,-0.03 -0.2,-0.04 -0.32,-0.04 -0.13,0 -0.28,0.01 -0.43,0.04 -0.15,0.03 -0.34,0.07 -0.56,0.12l-0.09 -0.46c0.25,-0.09 0.5,-0.18 0.74,-0.25 0.25,-0.08 0.47,-0.14 0.68,-0.2 0.21,-0.05 0.39,-0.1 0.55,-0.13 0.16,-0.03 0.29,-0.04 0.38,-0.04 0.11,0 0.21,0.02 0.31,0.06 0.1,0.04 0.2,0.1 0.29,0.2 0.1,0.09 0.19,0.22 0.28,0.39 0.09,0.17 0.18,0.38 0.27,0.64 0.05,0.16 0.13,0.36 0.21,0.61 0.08,0.26 0.17,0.54 0.27,0.86 0.09,0.33 0.2,0.67 0.31,1.05 0.11,0.38 0.22,0.78 0.33,1.18 0.11,0.41 0.22,0.83 0.33,1.26 0.11,0.43 0.22,0.85 0.32,1.27 0.21,-0.55 0.43,-1.13 0.66,-1.74 0.23,-0.6 0.46,-1.21 0.7,-1.82 0.24,-0.61 0.48,-1.22 0.72,-1.82 0.23,-0.6 0.46,-1.18 0.68,-1.72 0.04,-0.09 0.09,-0.17 0.15,-0.23 0.07,-0.06 0.14,-0.11 0.22,-0.14 0.08,-0.04 0.17,-0.06 0.26,-0.08 0.08,-0.01 0.17,-0.02 0.25,-0.02 0.14,0 0.28,0.02 0.41,0.06 0.13,0.04 0.25,0.09 0.37,0.15 -0.19,0.31 -0.39,0.65 -0.59,1.03 -0.21,0.38 -0.42,0.79 -0.63,1.22 -0.22,0.43 -0.43,0.88 -0.65,1.35 -0.22,0.46 -0.44,0.94 -0.65,1.43 -0.22,0.48 -0.43,0.97 -0.64,1.46 -0.21,0.49 -0.41,0.97 -0.6,1.45 -0.2,0.48 -0.39,0.95 -0.57,1.42 -0.17,0.47 -0.35,0.93 -0.51,1.37 -0.17,0.43 -0.34,0.86 -0.5,1.26 -0.17,0.41 -0.33,0.79 -0.5,1.14 -0.16,0.33 -0.33,0.63 -0.51,0.91 -0.18,0.28 -0.38,0.53 -0.6,0.73 -0.22,0.21 -0.47,0.37 -0.73,0.49 -0.26,0.12 -0.56,0.18 -0.88,0.18 -0.2,0 -0.37,-0.03 -0.53,-0.08 -0.16,-0.05 -0.3,-0.12 -0.41,-0.21 -0.12,-0.09 -0.2,-0.19 -0.26,-0.3 -0.06,-0.12 -0.09,-0.24 -0.09,-0.36 0,-0.14 0.04,-0.29 0.13,-0.44 0.08,-0.15 0.19,-0.26 0.32,-0.34 0.18,0.11 0.36,0.19 0.54,0.23 0.18,0.05 0.35,0.07 0.49,0.07 0.34,0 0.65,-0.09 0.92,-0.28 0.27,-0.19 0.52,-0.47 0.76,-0.85 0.23,-0.38 0.47,-0.85 0.71,-1.42 0.24,-0.57 0.5,-1.23 0.79,-2l0.13 -0.34 -0.31 -0.04z"/>
  <path id="_5" class="fil0" d="M46.15 271.2c0.46,-0.12 0.88,-0.24 1.28,-0.33 0.39,-0.1 0.74,-0.17 1.04,-0.24 0.31,-0.07 0.56,-0.12 0.76,-0.15 0.2,-0.03 0.33,-0.05 0.39,-0.05 0.16,0 0.26,0.04 0.32,0.11 0.06,0.07 0.08,0.19 0.08,0.36 0,0.03 0,0.12 0,0.25 -0.01,0.14 -0.01,0.31 -0.02,0.52 0,0.21 -0.01,0.44 -0.03,0.7 0,0.26 -0.01,0.53 -0.02,0.81 -0.01,0.28 -0.02,0.56 -0.03,0.84 -0.01,0.28 -0.02,0.54 -0.03,0.79 -0.02,0.75 -0.05,1.51 -0.07,2.28 -0.03,0.77 -0.04,1.49 -0.06,2.18l-1.19 0.14 -0.1 0c0.01,-0.29 0.03,-0.6 0.04,-0.93 0.02,-0.33 0.03,-0.65 0.04,-0.96 0.01,-0.32 0.03,-0.61 0.04,-0.88 0.01,-0.28 0.02,-0.5 0.02,-0.68 0.02,-0.55 0.03,-1.16 0.05,-1.85 0.02,-0.68 0.03,-1.45 0.03,-2.28 0,-0.2 -0.03,-0.33 -0.07,-0.41 -0.05,-0.08 -0.16,-0.11 -0.33,-0.11 -0.14,0 -0.38,0.02 -0.71,0.08 -0.33,0.05 -0.76,0.14 -1.31,0.25l-0.12 -0.44z"/>
  <path id="_6" class="fil0" d="M68.92 271.2c0.46,-0.12 0.88,-0.24 1.28,-0.33 0.39,-0.1 0.73,-0.17 1.04,-0.24 0.3,-0.07 0.56,-0.12 0.75,-0.15 0.2,-0.03 0.33,-0.05 0.4,-0.05 0.15,0 0.26,0.04 0.31,0.11 0.06,0.07 0.09,0.19 0.09,0.36 0,0.03 0,0.12 0,0.25 -0.01,0.14 -0.01,0.31 -0.02,0.52 -0.01,0.21 -0.02,0.44 -0.03,0.7 -0.01,0.26 -0.02,0.53 -0.02,0.81 -0.01,0.28 -0.02,0.56 -0.03,0.84 -0.01,0.28 -0.03,0.54 -0.03,0.79 -0.03,0.75 -0.05,1.51 -0.07,2.28 -0.03,0.77 -0.05,1.49 -0.06,2.18l-1.19 0.14 -0.1 0c0.01,-0.29 0.02,-0.6 0.04,-0.93 0.01,-0.33 0.03,-0.65 0.04,-0.96 0.01,-0.32 0.03,-0.61 0.03,-0.88 0.02,-0.28 0.03,-0.5 0.03,-0.68 0.01,-0.55 0.03,-1.16 0.05,-1.85 0.01,-0.68 0.02,-1.45 0.02,-2.28 0,-0.2 -0.02,-0.33 -0.07,-0.41 -0.04,-0.08 -0.15,-0.11 -0.32,-0.11 -0.15,0 -0.38,0.02 -0.71,0.08 -0.33,0.05 -0.76,0.14 -1.31,0.25l-0.12 -0.44z"/>
  <path class="fil0" d="M101.64 131.82c-0.12,0.15 -0.24,0.25 -0.37,0.32 -0.13,0.06 -0.26,0.09 -0.4,0.09 -0.21,0 -0.41,-0.05 -0.61,-0.15 -0.21,-0.11 -0.42,-0.27 -0.65,-0.49 -0.32,-0.31 -0.63,-0.68 -0.91,-1.11 -0.28,-0.43 -0.54,-0.89 -0.77,-1.38 -0.23,-0.49 -0.43,-1.02 -0.61,-1.57 -0.18,-0.55 -0.33,-1.11 -0.46,-1.69 -0.13,-0.58 -0.22,-1.16 -0.28,-1.75 -0.07,-0.59 -0.1,-1.17 -0.1,-1.73 0,-1.09 0.1,-2.16 0.28,-3.23 0.19,-1.07 0.48,-2.1 0.85,-3.11 0.37,-1.01 0.84,-1.98 1.39,-2.91 0.56,-0.93 1.2,-1.81 1.94,-2.64l0.45 0.36c-0.6,0.75 -1.14,1.55 -1.6,2.41 -0.47,0.86 -0.86,1.75 -1.17,2.68 -0.31,0.93 -0.55,1.89 -0.7,2.87 -0.16,0.98 -0.24,1.97 -0.24,2.97 0,0.59 0.03,1.19 0.09,1.81 0.06,0.61 0.16,1.22 0.29,1.83 0.13,0.61 0.3,1.2 0.51,1.79 0.2,0.59 0.46,1.16 0.75,1.7 0.29,0.54 0.63,1.05 1.01,1.53 0.38,0.48 0.81,0.92 1.29,1.3l0.02 0.1z"/>
  <path id="_1_0" class="fil0" d="M144.14 110.89c0.11,-0.15 0.24,-0.26 0.36,-0.32 0.13,-0.06 0.26,-0.09 0.4,-0.09 0.21,0 0.41,0.05 0.62,0.15 0.2,0.11 0.42,0.27 0.64,0.48 0.33,0.33 0.63,0.7 0.91,1.12 0.28,0.43 0.54,0.88 0.77,1.38 0.23,0.49 0.43,1.02 0.62,1.57 0.18,0.55 0.33,1.11 0.45,1.69 0.13,0.57 0.22,1.15 0.29,1.74 0.06,0.59 0.09,1.17 0.09,1.74 0,1.09 -0.09,2.17 -0.28,3.23 -0.19,1.06 -0.47,2.1 -0.84,3.11 -0.38,1 -0.84,1.98 -1.4,2.91 -0.55,0.93 -1.2,1.81 -1.94,2.64l-0.45 -0.36c0.61,-0.75 1.15,-1.56 1.61,-2.41 0.46,-0.86 0.85,-1.75 1.16,-2.69 0.32,-0.93 0.55,-1.88 0.71,-2.86 0.16,-0.99 0.24,-1.98 0.24,-2.97 0,-0.59 -0.04,-1.19 -0.1,-1.81 -0.06,-0.61 -0.15,-1.22 -0.28,-1.83 -0.14,-0.61 -0.31,-1.21 -0.51,-1.79 -0.22,-0.59 -0.46,-1.16 -0.76,-1.69 -0.29,-0.55 -0.62,-1.06 -1,-1.54 -0.39,-0.48 -0.82,-0.91 -1.3,-1.3l-0.01 -0.1z"/>
  <path id="_2_1" class="fil0" d="M102.36 119.2c0.29,-0.1 0.57,-0.18 0.83,-0.27 0.26,-0.07 0.5,-0.14 0.71,-0.2 0.22,-0.06 0.4,-0.11 0.56,-0.14 0.16,-0.02 0.29,-0.04 0.38,-0.04 0.13,0 0.25,0.02 0.36,0.06 0.12,0.04 0.23,0.11 0.34,0.22 0.11,0.11 0.21,0.26 0.32,0.46 0.1,0.2 0.2,0.45 0.31,0.76 0.13,0.37 0.25,0.73 0.38,1.06 0.13,0.33 0.25,0.66 0.37,1 0.27,-0.54 0.54,-1.03 0.8,-1.48 0.27,-0.44 0.55,-0.82 0.82,-1.13 0.27,-0.31 0.55,-0.56 0.83,-0.73 0.28,-0.17 0.56,-0.26 0.86,-0.26 0.19,0 0.36,0.03 0.5,0.09 0.15,0.06 0.27,0.13 0.37,0.22 0.1,0.1 0.17,0.21 0.22,0.34 0.05,0.12 0.07,0.25 0.07,0.38 0,0.18 -0.04,0.35 -0.13,0.53 -0.09,0.18 -0.23,0.33 -0.41,0.45l-0.05 0c-0.07,-0.1 -0.15,-0.17 -0.23,-0.23 -0.09,-0.05 -0.17,-0.1 -0.26,-0.13 -0.08,-0.03 -0.16,-0.05 -0.25,-0.07 -0.08,0 -0.16,-0.01 -0.23,-0.01 -0.25,0 -0.49,0.07 -0.72,0.21 -0.23,0.15 -0.46,0.34 -0.67,0.6 -0.22,0.25 -0.43,0.55 -0.63,0.89 -0.21,0.34 -0.41,0.72 -0.61,1.13 0.2,0.54 0.38,1.03 0.55,1.44 0.16,0.42 0.32,0.78 0.47,1.08 0.14,0.31 0.29,0.56 0.43,0.76 0.14,0.21 0.28,0.37 0.42,0.49 0.15,0.13 0.3,0.21 0.45,0.27 0.16,0.05 0.33,0.07 0.51,0.07 0.13,0 0.25,0 0.36,-0.01 0.11,-0.01 0.21,-0.03 0.31,-0.04 0.11,-0.02 0.22,-0.05 0.33,-0.08 0.11,-0.04 0.24,-0.08 0.38,-0.13l0.13 0.36c-0.21,0.14 -0.43,0.27 -0.65,0.39 -0.24,0.11 -0.47,0.21 -0.71,0.3 -0.24,0.08 -0.47,0.14 -0.69,0.19 -0.23,0.05 -0.44,0.07 -0.63,0.07 -0.28,0 -0.52,-0.07 -0.74,-0.2 -0.22,-0.14 -0.43,-0.35 -0.62,-0.64 -0.2,-0.29 -0.39,-0.66 -0.59,-1.11 -0.2,-0.46 -0.42,-1 -0.66,-1.64 -0.3,0.54 -0.6,1.03 -0.89,1.47 -0.29,0.45 -0.59,0.83 -0.89,1.15 -0.29,0.32 -0.59,0.57 -0.89,0.75 -0.29,0.18 -0.59,0.27 -0.9,0.27 -0.18,0 -0.35,-0.03 -0.49,-0.08 -0.13,-0.05 -0.25,-0.12 -0.35,-0.2 -0.09,-0.09 -0.16,-0.19 -0.21,-0.3 -0.04,-0.11 -0.07,-0.23 -0.07,-0.35 0,-0.15 0.03,-0.29 0.09,-0.44 0.07,-0.15 0.16,-0.29 0.29,-0.43 0.23,0.09 0.43,0.15 0.61,0.18 0.18,0.03 0.35,0.05 0.49,0.05 0.27,0 0.53,-0.07 0.78,-0.2 0.25,-0.14 0.49,-0.33 0.73,-0.58 0.24,-0.25 0.47,-0.55 0.7,-0.9 0.24,-0.35 0.47,-0.75 0.71,-1.18 -0.08,-0.2 -0.16,-0.41 -0.23,-0.63 -0.08,-0.21 -0.17,-0.44 -0.25,-0.68 -0.09,-0.24 -0.19,-0.5 -0.28,-0.77 -0.1,-0.27 -0.2,-0.56 -0.31,-0.86 -0.1,-0.26 -0.2,-0.47 -0.29,-0.63 -0.1,-0.17 -0.2,-0.3 -0.31,-0.39 -0.1,-0.09 -0.22,-0.16 -0.34,-0.19 -0.13,-0.04 -0.27,-0.05 -0.42,-0.05 -0.13,0 -0.29,0.01 -0.48,0.05 -0.18,0.03 -0.38,0.07 -0.6,0.12l-0.09 -0.46z"/>
  <path id="_3_2" class="fil0" d="M119.74 130.7c0.25,-0.13 0.49,-0.29 0.7,-0.49 0.22,-0.2 0.42,-0.42 0.58,-0.65 0.15,-0.23 0.28,-0.47 0.37,-0.72 0.09,-0.24 0.14,-0.48 0.14,-0.7 0,-0.19 -0.03,-0.34 -0.08,-0.46 -0.05,-0.12 -0.11,-0.21 -0.19,-0.3 -0.07,-0.08 -0.15,-0.15 -0.24,-0.2 -0.09,-0.06 -0.17,-0.13 -0.25,-0.2 -0.07,-0.07 -0.14,-0.15 -0.18,-0.25 -0.05,-0.09 -0.08,-0.22 -0.08,-0.38 0,-0.13 0.03,-0.26 0.07,-0.38 0.05,-0.12 0.12,-0.23 0.21,-0.32 0.08,-0.1 0.19,-0.17 0.31,-0.22 0.11,-0.06 0.25,-0.08 0.4,-0.08 0.21,0 0.39,0.04 0.55,0.13 0.16,0.1 0.29,0.22 0.4,0.37 0.1,0.15 0.18,0.33 0.23,0.52 0.05,0.19 0.08,0.38 0.08,0.58 0,0.34 -0.06,0.7 -0.18,1.1 -0.11,0.38 -0.29,0.76 -0.51,1.14 -0.23,0.37 -0.51,0.72 -0.86,1.05 -0.34,0.33 -0.74,0.61 -1.19,0.83l-0.28 -0.37z"/>
  <path id="_4_3" class="fil0" d="M131.52 127.8c-0.11,-0.41 -0.22,-0.83 -0.35,-1.27 -0.12,-0.44 -0.25,-0.88 -0.38,-1.33 -0.13,-0.45 -0.26,-0.88 -0.38,-1.32 -0.13,-0.43 -0.26,-0.84 -0.38,-1.23 -0.12,-0.4 -0.23,-0.76 -0.34,-1.09 -0.11,-0.33 -0.21,-0.62 -0.29,-0.86 -0.09,-0.25 -0.17,-0.46 -0.26,-0.61 -0.08,-0.17 -0.17,-0.29 -0.25,-0.38 -0.09,-0.09 -0.18,-0.15 -0.28,-0.19 -0.1,-0.03 -0.21,-0.04 -0.32,-0.04 -0.14,0 -0.28,0.01 -0.44,0.04 -0.15,0.03 -0.34,0.07 -0.55,0.12l-0.1 -0.46c0.26,-0.09 0.5,-0.18 0.75,-0.25 0.24,-0.08 0.46,-0.14 0.67,-0.2 0.21,-0.05 0.39,-0.1 0.55,-0.13 0.16,-0.03 0.29,-0.04 0.38,-0.04 0.11,0 0.22,0.02 0.32,0.06 0.09,0.04 0.19,0.1 0.28,0.2 0.1,0.09 0.2,0.22 0.28,0.39 0.09,0.17 0.18,0.38 0.27,0.64 0.06,0.16 0.13,0.36 0.21,0.61 0.08,0.26 0.17,0.54 0.27,0.86 0.09,0.33 0.2,0.67 0.31,1.05 0.11,0.38 0.22,0.78 0.33,1.18 0.11,0.41 0.22,0.84 0.34,1.26 0.1,0.43 0.21,0.85 0.31,1.27 0.21,-0.55 0.43,-1.13 0.66,-1.74 0.23,-0.6 0.47,-1.21 0.7,-1.82 0.25,-0.61 0.48,-1.22 0.72,-1.82 0.24,-0.6 0.46,-1.18 0.68,-1.72 0.04,-0.09 0.09,-0.17 0.16,-0.23 0.06,-0.06 0.13,-0.11 0.22,-0.14 0.07,-0.04 0.16,-0.06 0.25,-0.08 0.08,-0.01 0.17,-0.02 0.25,-0.02 0.14,0 0.28,0.02 0.41,0.06 0.13,0.04 0.25,0.09 0.37,0.15 -0.19,0.31 -0.38,0.65 -0.59,1.03 -0.2,0.38 -0.42,0.79 -0.63,1.22 -0.21,0.43 -0.43,0.88 -0.65,1.35 -0.22,0.46 -0.43,0.94 -0.65,1.43 -0.22,0.48 -0.43,0.97 -0.64,1.46 -0.2,0.49 -0.41,0.97 -0.6,1.45 -0.2,0.48 -0.39,0.95 -0.56,1.42 -0.18,0.47 -0.35,0.93 -0.52,1.37 -0.17,0.43 -0.34,0.86 -0.5,1.26 -0.16,0.41 -0.33,0.79 -0.5,1.14 -0.16,0.33 -0.33,0.63 -0.51,0.91 -0.18,0.28 -0.38,0.53 -0.6,0.73 -0.22,0.21 -0.46,0.37 -0.73,0.49 -0.26,0.12 -0.56,0.18 -0.88,0.18 -0.19,0 -0.37,-0.03 -0.53,-0.08 -0.16,-0.05 -0.3,-0.12 -0.41,-0.21 -0.11,-0.09 -0.2,-0.19 -0.26,-0.3 -0.06,-0.12 -0.09,-0.24 -0.09,-0.36 0,-0.14 0.05,-0.29 0.13,-0.44 0.08,-0.15 0.19,-0.26 0.32,-0.34 0.18,0.11 0.36,0.19 0.54,0.23 0.18,0.05 0.35,0.07 0.49,0.07 0.35,0 0.65,-0.09 0.92,-0.28 0.27,-0.19 0.52,-0.47 0.76,-0.85 0.24,-0.38 0.47,-0.85 0.71,-1.42 0.24,-0.57 0.5,-1.23 0.8,-2l0.12 -0.34 -0.31 -0.04z"/>
  <path id="_5_4" class="fil0" d="M112.03 131.2c0.34,-0.27 0.7,-0.55 1.07,-0.85 0.37,-0.3 0.75,-0.62 1.11,-0.94 0.36,-0.33 0.71,-0.66 1.04,-1 0.33,-0.34 0.62,-0.69 0.87,-1.05 0.24,-0.35 0.44,-0.71 0.59,-1.08 0.15,-0.36 0.22,-0.72 0.22,-1.08 0,-0.35 -0.05,-0.64 -0.16,-0.88 -0.12,-0.25 -0.26,-0.44 -0.44,-0.6 -0.18,-0.15 -0.38,-0.26 -0.6,-0.33 -0.23,-0.08 -0.45,-0.11 -0.66,-0.11 -0.25,0 -0.45,0.03 -0.62,0.11 -0.18,0.07 -0.31,0.16 -0.42,0.29 -0.11,0.12 -0.19,0.27 -0.24,0.43 -0.05,0.17 -0.07,0.34 -0.07,0.53 0,0.23 0.04,0.45 0.14,0.68 0.1,0.23 0.25,0.43 0.46,0.6l-0.03 0.1c-0.12,0.06 -0.24,0.1 -0.36,0.13 -0.11,0.03 -0.23,0.04 -0.36,0.04 -0.15,0 -0.29,-0.02 -0.43,-0.07 -0.14,-0.05 -0.25,-0.12 -0.35,-0.21 -0.1,-0.09 -0.18,-0.21 -0.24,-0.36 -0.05,-0.13 -0.08,-0.3 -0.08,-0.48 0,-0.25 0.05,-0.48 0.14,-0.71 0.1,-0.22 0.22,-0.43 0.39,-0.61 0.15,-0.19 0.34,-0.36 0.55,-0.5 0.21,-0.16 0.44,-0.28 0.67,-0.38 0.24,-0.11 0.48,-0.19 0.72,-0.24 0.24,-0.06 0.48,-0.09 0.7,-0.09 0.4,0 0.77,0.05 1.09,0.16 0.33,0.1 0.61,0.25 0.84,0.43 0.24,0.19 0.42,0.42 0.55,0.69 0.12,0.27 0.19,0.58 0.19,0.91 0,0.4 -0.07,0.78 -0.2,1.15 -0.13,0.37 -0.31,0.72 -0.54,1.07 -0.23,0.34 -0.49,0.67 -0.8,0.99 -0.3,0.32 -0.62,0.63 -0.97,0.93 -0.34,0.29 -0.7,0.58 -1.06,0.86 -0.37,0.28 -0.72,0.55 -1.07,0.81l-0.55 0.4 0.02 0.04c0.31,-0.09 0.65,-0.18 1.02,-0.27 0.37,-0.09 0.74,-0.16 1.1,-0.23 0.37,-0.07 0.73,-0.12 1.06,-0.15 0.34,-0.04 0.63,-0.06 0.88,-0.06 0.22,0 0.42,0.01 0.59,0.03 0.18,0.01 0.32,0.05 0.44,0.11 0.11,0.06 0.2,0.14 0.26,0.24 0.06,0.1 0.09,0.23 0.09,0.4 0,0.18 -0.07,0.39 -0.21,0.63 -0.27,-0.03 -0.53,-0.06 -0.77,-0.08 -0.24,-0.03 -0.48,-0.05 -0.71,-0.06 -0.24,-0.02 -0.48,-0.03 -0.72,-0.04 -0.24,-0.01 -0.5,-0.02 -0.77,-0.02 -0.52,0 -1.03,0.02 -1.55,0.06 -0.53,0.04 -1.08,0.08 -1.67,0.15l-0.15 -0.49z"/>
  <path id="_6_5" class="fil0" d="M136.9 131.2c0.34,-0.27 0.7,-0.55 1.07,-0.85 0.37,-0.3 0.75,-0.62 1.11,-0.94 0.36,-0.33 0.71,-0.66 1.04,-1 0.32,-0.34 0.61,-0.69 0.87,-1.05 0.24,-0.35 0.44,-0.71 0.59,-1.08 0.15,-0.36 0.22,-0.72 0.22,-1.08 0,-0.35 -0.05,-0.64 -0.17,-0.88 -0.11,-0.25 -0.26,-0.44 -0.43,-0.6 -0.18,-0.15 -0.38,-0.26 -0.6,-0.33 -0.23,-0.08 -0.45,-0.11 -0.67,-0.11 -0.24,0 -0.44,0.03 -0.61,0.11 -0.18,0.07 -0.31,0.16 -0.42,0.29 -0.11,0.12 -0.19,0.27 -0.24,0.43 -0.05,0.17 -0.07,0.34 -0.07,0.53 0,0.23 0.04,0.45 0.14,0.68 0.1,0.23 0.25,0.43 0.46,0.6l-0.03 0.1c-0.12,0.06 -0.24,0.1 -0.36,0.13 -0.11,0.03 -0.23,0.04 -0.36,0.04 -0.15,0 -0.3,-0.02 -0.43,-0.07 -0.14,-0.05 -0.25,-0.12 -0.35,-0.21 -0.1,-0.09 -0.18,-0.21 -0.24,-0.36 -0.05,-0.13 -0.08,-0.3 -0.08,-0.48 0,-0.25 0.04,-0.48 0.14,-0.71 0.09,-0.22 0.22,-0.43 0.38,-0.61 0.16,-0.19 0.35,-0.36 0.56,-0.5 0.21,-0.16 0.44,-0.28 0.67,-0.38 0.24,-0.11 0.48,-0.19 0.72,-0.24 0.24,-0.06 0.47,-0.09 0.7,-0.09 0.4,0 0.77,0.05 1.09,0.16 0.33,0.1 0.61,0.25 0.84,0.43 0.24,0.19 0.42,0.42 0.55,0.69 0.12,0.27 0.19,0.58 0.19,0.91 0,0.4 -0.07,0.78 -0.2,1.15 -0.13,0.37 -0.31,0.72 -0.54,1.07 -0.23,0.34 -0.49,0.67 -0.8,0.99 -0.3,0.32 -0.62,0.63 -0.97,0.93 -0.34,0.29 -0.7,0.58 -1.06,0.86 -0.37,0.28 -0.73,0.55 -1.08,0.81l-0.54 0.4 0.02 0.04c0.31,-0.09 0.65,-0.18 1.02,-0.27 0.37,-0.09 0.74,-0.16 1.1,-0.23 0.37,-0.07 0.73,-0.12 1.06,-0.15 0.34,-0.04 0.63,-0.06 0.88,-0.06 0.22,0 0.42,0.01 0.59,0.03 0.18,0.01 0.32,0.05 0.44,0.11 0.11,0.06 0.2,0.14 0.26,0.24 0.06,0.1 0.09,0.23 0.09,0.4 0,0.18 -0.07,0.39 -0.21,0.63 -0.27,-0.03 -0.53,-0.06 -0.77,-0.08 -0.24,-0.03 -0.48,-0.05 -0.72,-0.06 -0.23,-0.02 -0.47,-0.03 -0.71,-0.04 -0.24,-0.01 -0.5,-0.02 -0.77,-0.02 -0.52,0 -1.04,0.02 -1.55,0.06 -0.53,0.04 -1.08,0.08 -1.67,0.15l-0.15 -0.49z"/>
  <a xlink:href="https://ampl.com/">
   <rect class="fil3" x="206" y="59" width="53" height="23"/>
   <path class="fil0" d="M212.12 80.59c-0.12,0.14 -0.24,0.25 -0.37,0.31 -0.13,0.06 -0.26,0.1 -0.4,0.1 -0.21,0 -0.41,-0.06 -0.61,-0.16 -0.21,-0.1 -0.42,-0.26 -0.65,-0.48 -0.32,-0.32 -0.63,-0.69 -0.91,-1.12 -0.28,-0.42 -0.54,-0.88 -0.77,-1.37 -0.23,-0.5 -0.43,-1.02 -0.61,-1.57 -0.18,-0.55 -0.34,-1.12 -0.46,-1.7 -0.13,-0.58 -0.22,-1.16 -0.28,-1.75 -0.07,-0.58 -0.1,-1.16 -0.1,-1.73 0,-1.08 0.1,-2.16 0.28,-3.22 0.19,-1.07 0.48,-2.11 0.85,-3.11 0.37,-1.01 0.84,-1.98 1.39,-2.91 0.56,-0.94 1.2,-1.82 1.94,-2.65l0.45 0.36c-0.6,0.75 -1.14,1.56 -1.6,2.42 -0.47,0.85 -0.86,1.75 -1.17,2.68 -0.31,0.93 -0.55,1.88 -0.7,2.87 -0.16,0.98 -0.24,1.97 -0.24,2.96 0,0.6 0.03,1.2 0.09,1.81 0.06,0.62 0.16,1.22 0.29,1.83 0.13,0.61 0.3,1.21 0.51,1.8 0.2,0.59 0.46,1.15 0.75,1.69 0.29,0.55 0.63,1.06 1.01,1.54 0.38,0.48 0.81,0.91 1.29,1.3l0.02 0.1z"/>
   <path id="_1_6" class="fil0" d="M254.58 59.65c0.12,-0.15 0.24,-0.25 0.37,-0.31 0.13,-0.07 0.26,-0.1 0.4,-0.1 0.21,0 0.41,0.06 0.61,0.16 0.21,0.1 0.42,0.26 0.65,0.48 0.32,0.32 0.63,0.69 0.91,1.11 0.28,0.43 0.53,0.89 0.76,1.38 0.23,0.5 0.44,1.02 0.62,1.57 0.18,0.55 0.33,1.12 0.46,1.69 0.12,0.58 0.22,1.16 0.28,1.75 0.07,0.58 0.1,1.16 0.1,1.73 0,1.09 -0.09,2.17 -0.28,3.24 -0.19,1.06 -0.47,2.1 -0.85,3.1 -0.37,1.01 -0.83,1.98 -1.39,2.91 -0.55,0.93 -1.2,1.82 -1.94,2.64l-0.45 -0.36c0.61,-0.75 1.14,-1.55 1.6,-2.41 0.47,-0.85 0.85,-1.75 1.17,-2.68 0.31,-0.93 0.55,-1.89 0.71,-2.87 0.15,-0.98 0.23,-1.97 0.23,-2.97 0,-0.59 -0.03,-1.19 -0.09,-1.8 -0.06,-0.62 -0.16,-1.23 -0.29,-1.83 -0.13,-0.61 -0.3,-1.21 -0.51,-1.8 -0.21,-0.59 -0.46,-1.15 -0.75,-1.69 -0.29,-0.54 -0.63,-1.05 -1.01,-1.53 -0.38,-0.48 -0.81,-0.92 -1.29,-1.31l-0.02 -0.1z"/>
   <path id="_2_7" class="fil0" d="M212.84 67.97c0.29,-0.1 0.57,-0.19 0.83,-0.27 0.26,-0.08 0.5,-0.15 0.71,-0.21 0.22,-0.06 0.4,-0.1 0.56,-0.13 0.16,-0.03 0.29,-0.04 0.38,-0.04 0.13,0 0.25,0.02 0.36,0.05 0.12,0.04 0.23,0.12 0.34,0.23 0.11,0.11 0.21,0.26 0.32,0.45 0.1,0.2 0.2,0.45 0.31,0.76 0.13,0.38 0.25,0.73 0.38,1.06 0.13,0.34 0.25,0.67 0.37,1 0.27,-0.54 0.54,-1.03 0.8,-1.48 0.27,-0.44 0.54,-0.81 0.82,-1.13 0.27,-0.31 0.55,-0.55 0.83,-0.72 0.28,-0.18 0.56,-0.26 0.86,-0.26 0.19,0 0.36,0.03 0.5,0.08 0.15,0.06 0.27,0.14 0.37,0.23 0.1,0.1 0.17,0.2 0.22,0.33 0.04,0.12 0.07,0.25 0.07,0.38 0,0.18 -0.04,0.36 -0.13,0.54 -0.09,0.17 -0.23,0.32 -0.41,0.45l-0.05 0c-0.07,-0.1 -0.15,-0.17 -0.23,-0.23 -0.09,-0.06 -0.17,-0.11 -0.26,-0.14 -0.08,-0.03 -0.16,-0.05 -0.25,-0.06 -0.08,-0.01 -0.16,-0.01 -0.23,-0.01 -0.25,0 -0.49,0.07 -0.72,0.21 -0.23,0.14 -0.46,0.34 -0.67,0.59 -0.22,0.25 -0.43,0.55 -0.63,0.9 -0.21,0.34 -0.41,0.71 -0.61,1.12 0.2,0.55 0.38,1.03 0.55,1.45 0.16,0.41 0.32,0.77 0.47,1.08 0.14,0.3 0.29,0.55 0.43,0.76 0.14,0.2 0.28,0.36 0.42,0.49 0.15,0.12 0.3,0.21 0.45,0.26 0.16,0.05 0.33,0.07 0.51,0.07 0.13,0 0.25,0 0.36,0 0.11,-0.01 0.21,-0.03 0.31,-0.05 0.11,-0.02 0.22,-0.05 0.33,-0.08 0.11,-0.03 0.24,-0.07 0.38,-0.13l0.13 0.37c-0.21,0.14 -0.43,0.27 -0.65,0.39 -0.24,0.11 -0.47,0.21 -0.71,0.29 -0.24,0.08 -0.47,0.15 -0.69,0.19 -0.23,0.05 -0.44,0.07 -0.63,0.07 -0.28,0 -0.52,-0.07 -0.74,-0.2 -0.22,-0.13 -0.43,-0.35 -0.62,-0.64 -0.2,-0.29 -0.39,-0.66 -0.59,-1.11 -0.2,-0.45 -0.42,-1 -0.66,-1.63 -0.3,0.53 -0.6,1.02 -0.89,1.47 -0.29,0.44 -0.59,0.83 -0.89,1.15 -0.29,0.31 -0.59,0.57 -0.89,0.74 -0.29,0.18 -0.59,0.27 -0.9,0.27 -0.18,0 -0.35,-0.02 -0.49,-0.07 -0.13,-0.06 -0.25,-0.12 -0.35,-0.21 -0.09,-0.09 -0.16,-0.18 -0.21,-0.29 -0.04,-0.12 -0.07,-0.23 -0.07,-0.36 0,-0.14 0.03,-0.29 0.09,-0.44 0.07,-0.15 0.16,-0.29 0.29,-0.43 0.23,0.09 0.43,0.15 0.61,0.18 0.18,0.04 0.35,0.05 0.49,0.05 0.27,0 0.53,-0.06 0.78,-0.2 0.25,-0.13 0.49,-0.33 0.73,-0.57 0.24,-0.26 0.47,-0.56 0.7,-0.91 0.23,-0.35 0.47,-0.74 0.71,-1.18 -0.08,-0.2 -0.16,-0.41 -0.23,-0.63 -0.08,-0.21 -0.17,-0.44 -0.25,-0.68 -0.09,-0.24 -0.19,-0.49 -0.28,-0.76 -0.1,-0.27 -0.2,-0.56 -0.31,-0.86 -0.1,-0.27 -0.2,-0.48 -0.29,-0.64 -0.1,-0.16 -0.2,-0.29 -0.31,-0.39 -0.1,-0.09 -0.22,-0.15 -0.34,-0.19 -0.13,-0.03 -0.27,-0.05 -0.42,-0.05 -0.13,0 -0.29,0.02 -0.48,0.05 -0.18,0.03 -0.38,0.07 -0.6,0.12l-0.09 -0.45z"/>
   <path id="_3_8" class="fil0" d="M230.2 79.47c0.25,-0.13 0.49,-0.3 0.71,-0.5 0.22,-0.2 0.41,-0.42 0.57,-0.65 0.15,-0.23 0.28,-0.47 0.37,-0.71 0.09,-0.25 0.14,-0.48 0.14,-0.71 0,-0.19 -0.03,-0.34 -0.08,-0.45 -0.05,-0.12 -0.11,-0.22 -0.19,-0.3 -0.07,-0.08 -0.15,-0.15 -0.24,-0.21 -0.09,-0.06 -0.17,-0.13 -0.24,-0.19 -0.08,-0.07 -0.14,-0.16 -0.19,-0.25 -0.05,-0.1 -0.08,-0.22 -0.08,-0.38 0,-0.14 0.03,-0.27 0.08,-0.39 0.04,-0.12 0.11,-0.22 0.2,-0.32 0.09,-0.09 0.19,-0.16 0.31,-0.22 0.12,-0.05 0.25,-0.08 0.4,-0.08 0.21,0 0.4,0.05 0.56,0.14 0.15,0.1 0.29,0.22 0.39,0.37 0.1,0.15 0.18,0.32 0.23,0.51 0.05,0.2 0.08,0.39 0.08,0.58 0,0.34 -0.06,0.71 -0.17,1.1 -0.12,0.39 -0.29,0.77 -0.52,1.14 -0.23,0.37 -0.51,0.73 -0.85,1.06 -0.34,0.33 -0.74,0.6 -1.2,0.82l-0.28 -0.36z"/>
   <path id="_4_9" class="fil0" d="M241.98 76.56c-0.1,-0.4 -0.22,-0.82 -0.35,-1.26 -0.12,-0.45 -0.25,-0.89 -0.38,-1.33 -0.13,-0.45 -0.26,-0.89 -0.38,-1.32 -0.13,-0.43 -0.26,-0.85 -0.38,-1.24 -0.12,-0.39 -0.23,-0.75 -0.34,-1.09 -0.11,-0.33 -0.2,-0.61 -0.29,-0.86 -0.09,-0.25 -0.17,-0.45 -0.25,-0.61 -0.09,-0.16 -0.17,-0.29 -0.26,-0.37 -0.09,-0.09 -0.18,-0.16 -0.28,-0.19 -0.1,-0.03 -0.2,-0.05 -0.32,-0.05 -0.14,0 -0.28,0.01 -0.44,0.05 -0.15,0.03 -0.33,0.06 -0.55,0.12l-0.1 -0.46c0.26,-0.1 0.51,-0.18 0.75,-0.26 0.24,-0.07 0.47,-0.14 0.67,-0.2 0.21,-0.05 0.39,-0.09 0.56,-0.12 0.16,-0.03 0.28,-0.05 0.38,-0.05 0.1,0 0.21,0.02 0.31,0.06 0.1,0.04 0.19,0.11 0.29,0.2 0.09,0.1 0.19,0.23 0.27,0.4 0.1,0.16 0.18,0.37 0.27,0.63 0.06,0.16 0.13,0.37 0.21,0.62 0.09,0.26 0.17,0.54 0.27,0.86 0.1,0.32 0.2,0.67 0.31,1.05 0.11,0.38 0.22,0.77 0.34,1.18 0.1,0.41 0.22,0.83 0.33,1.26 0.11,0.43 0.21,0.85 0.32,1.27 0.21,-0.56 0.43,-1.13 0.66,-1.74 0.23,-0.61 0.46,-1.22 0.7,-1.82 0.24,-0.62 0.48,-1.22 0.71,-1.82 0.24,-0.61 0.47,-1.18 0.68,-1.73 0.04,-0.09 0.09,-0.17 0.16,-0.22 0.06,-0.06 0.14,-0.11 0.22,-0.15 0.08,-0.04 0.16,-0.06 0.25,-0.08 0.09,-0.01 0.17,-0.02 0.26,-0.02 0.13,0 0.27,0.02 0.4,0.06 0.13,0.04 0.26,0.09 0.37,0.15 -0.19,0.31 -0.38,0.66 -0.59,1.04 -0.2,0.38 -0.41,0.78 -0.63,1.21 -0.21,0.43 -0.43,0.89 -0.65,1.35 -0.21,0.47 -0.43,0.94 -0.65,1.43 -0.21,0.49 -0.42,0.97 -0.63,1.47 -0.21,0.49 -0.41,0.97 -0.61,1.44 -0.2,0.48 -0.38,0.96 -0.56,1.43 -0.18,0.46 -0.35,0.92 -0.52,1.36 -0.17,0.44 -0.34,0.86 -0.5,1.27 -0.16,0.4 -0.32,0.78 -0.49,1.13 -0.16,0.33 -0.34,0.63 -0.52,0.92 -0.18,0.28 -0.38,0.52 -0.6,0.73 -0.22,0.21 -0.46,0.37 -0.72,0.49 -0.27,0.12 -0.56,0.18 -0.88,0.18 -0.2,0 -0.38,-0.03 -0.54,-0.09 -0.16,-0.05 -0.3,-0.12 -0.41,-0.2 -0.11,-0.09 -0.19,-0.19 -0.25,-0.31 -0.07,-0.11 -0.1,-0.23 -0.1,-0.36 0,-0.14 0.05,-0.29 0.13,-0.44 0.08,-0.15 0.19,-0.26 0.32,-0.34 0.18,0.11 0.36,0.19 0.54,0.24 0.19,0.05 0.35,0.07 0.49,0.07 0.35,0 0.66,-0.09 0.92,-0.29 0.27,-0.18 0.52,-0.47 0.76,-0.84 0.24,-0.38 0.47,-0.86 0.71,-1.43 0.24,-0.56 0.51,-1.23 0.8,-1.99l0.13 -0.34 -0.32 -0.05z"/>
   <path id="_5_10" class="fil0" d="M224.67 75.58c0.47,-0.11 0.87,-0.24 1.18,-0.4 0.32,-0.15 0.57,-0.32 0.77,-0.51 0.19,-0.19 0.33,-0.39 0.41,-0.61 0.08,-0.21 0.12,-0.43 0.12,-0.66 0,-0.18 -0.03,-0.36 -0.1,-0.53 -0.07,-0.16 -0.18,-0.31 -0.32,-0.44 -0.13,-0.12 -0.31,-0.22 -0.51,-0.3 -0.21,-0.07 -0.45,-0.11 -0.73,-0.11 -0.21,0 -0.4,0.03 -0.56,0.1 -0.16,0.06 -0.3,0.14 -0.4,0.24 -0.12,0.1 -0.2,0.22 -0.25,0.35 -0.06,0.13 -0.08,0.26 -0.08,0.4 0,0.17 0.03,0.34 0.1,0.5 0.07,0.17 0.17,0.33 0.31,0.48l-0.02 0.07c-0.18,0.1 -0.35,0.15 -0.54,0.15 -0.11,0 -0.22,-0.02 -0.34,-0.06 -0.11,-0.03 -0.22,-0.09 -0.32,-0.16 -0.09,-0.07 -0.17,-0.17 -0.23,-0.28 -0.06,-0.11 -0.09,-0.25 -0.09,-0.41 0,-0.18 0.04,-0.36 0.12,-0.54 0.08,-0.18 0.2,-0.34 0.35,-0.5 0.14,-0.15 0.32,-0.29 0.51,-0.42 0.2,-0.13 0.42,-0.25 0.65,-0.34 0.23,-0.09 0.47,-0.16 0.72,-0.22 0.26,-0.05 0.51,-0.07 0.77,-0.07 0.39,0 0.74,0.04 1.03,0.14 0.29,0.1 0.54,0.22 0.73,0.38 0.19,0.15 0.34,0.33 0.44,0.54 0.09,0.2 0.13,0.41 0.13,0.63 0,0.24 -0.04,0.49 -0.15,0.74 -0.1,0.24 -0.26,0.48 -0.46,0.7 -0.2,0.22 -0.45,0.43 -0.74,0.61 -0.3,0.19 -0.64,0.35 -1.02,0.47l0 0.03c0.49,0.01 0.9,0.08 1.25,0.2 0.35,0.12 0.63,0.27 0.86,0.46 0.22,0.2 0.38,0.42 0.49,0.67 0.1,0.24 0.16,0.5 0.16,0.77 0,0.4 -0.1,0.79 -0.29,1.14 -0.18,0.36 -0.45,0.67 -0.78,0.93 -0.34,0.27 -0.73,0.48 -1.19,0.63 -0.46,0.15 -0.96,0.23 -1.49,0.23 -0.25,0 -0.53,-0.04 -0.81,-0.1 -0.28,-0.07 -0.55,-0.17 -0.78,-0.3 -0.24,-0.14 -0.44,-0.31 -0.6,-0.51 -0.16,-0.21 -0.24,-0.45 -0.24,-0.73 0,-0.12 0.02,-0.23 0.07,-0.32 0.04,-0.09 0.1,-0.17 0.17,-0.24 0.07,-0.06 0.16,-0.11 0.26,-0.14 0.1,-0.03 0.2,-0.05 0.31,-0.05 0.05,0 0.09,0.01 0.13,0.02 0.05,0 0.09,0.01 0.14,0.03 0.04,0.28 0.12,0.52 0.24,0.74 0.12,0.2 0.26,0.38 0.43,0.51 0.16,0.14 0.35,0.24 0.55,0.31 0.2,0.07 0.41,0.1 0.62,0.1 0.24,0 0.47,-0.04 0.7,-0.12 0.22,-0.08 0.43,-0.2 0.61,-0.37 0.17,-0.16 0.32,-0.37 0.43,-0.62 0.11,-0.25 0.16,-0.53 0.16,-0.86 0,-0.25 -0.05,-0.49 -0.14,-0.72 -0.1,-0.23 -0.24,-0.44 -0.43,-0.62 -0.2,-0.18 -0.44,-0.31 -0.73,-0.42 -0.29,-0.11 -0.63,-0.16 -1.02,-0.16 -0.08,0 -0.16,0 -0.24,0 -0.08,0.01 -0.16,0.01 -0.24,0.02l-0.08 -0.45z"/>
   <path id="_6_11" class="fil0" d="M249.52 75.58c0.48,-0.11 0.87,-0.24 1.18,-0.4 0.32,-0.15 0.58,-0.32 0.77,-0.51 0.19,-0.19 0.33,-0.39 0.41,-0.61 0.08,-0.21 0.13,-0.43 0.13,-0.66 0,-0.18 -0.04,-0.36 -0.11,-0.53 -0.07,-0.16 -0.18,-0.31 -0.31,-0.44 -0.14,-0.12 -0.31,-0.22 -0.52,-0.3 -0.21,-0.07 -0.45,-0.11 -0.72,-0.11 -0.22,0 -0.41,0.03 -0.57,0.1 -0.16,0.06 -0.29,0.14 -0.4,0.24 -0.12,0.1 -0.2,0.22 -0.25,0.35 -0.06,0.13 -0.08,0.26 -0.08,0.4 0,0.17 0.03,0.34 0.1,0.5 0.07,0.17 0.17,0.33 0.31,0.48l-0.02 0.07c-0.18,0.1 -0.35,0.15 -0.54,0.15 -0.11,0 -0.22,-0.02 -0.34,-0.06 -0.11,-0.03 -0.22,-0.09 -0.32,-0.16 -0.09,-0.07 -0.17,-0.17 -0.23,-0.28 -0.06,-0.11 -0.09,-0.25 -0.09,-0.41 0,-0.18 0.04,-0.36 0.12,-0.54 0.08,-0.18 0.2,-0.34 0.35,-0.5 0.14,-0.15 0.32,-0.29 0.52,-0.42 0.19,-0.13 0.41,-0.25 0.64,-0.34 0.23,-0.09 0.47,-0.16 0.73,-0.22 0.25,-0.05 0.5,-0.07 0.76,-0.07 0.4,0 0.74,0.04 1.03,0.14 0.29,0.1 0.54,0.22 0.73,0.38 0.2,0.15 0.34,0.33 0.44,0.54 0.09,0.2 0.14,0.41 0.14,0.63 0,0.24 -0.05,0.49 -0.16,0.74 -0.1,0.24 -0.25,0.48 -0.46,0.7 -0.2,0.22 -0.45,0.43 -0.74,0.61 -0.3,0.19 -0.64,0.35 -1.02,0.47l0 0.03c0.49,0.01 0.91,0.08 1.25,0.2 0.35,0.12 0.63,0.27 0.86,0.46 0.22,0.2 0.38,0.42 0.49,0.67 0.1,0.24 0.16,0.5 0.16,0.77 0,0.4 -0.09,0.79 -0.28,1.14 -0.19,0.36 -0.45,0.67 -0.79,0.93 -0.33,0.27 -0.73,0.48 -1.19,0.63 -0.46,0.15 -0.96,0.23 -1.49,0.23 -0.25,0 -0.52,-0.04 -0.81,-0.1 -0.28,-0.07 -0.54,-0.17 -0.78,-0.3 -0.24,-0.14 -0.44,-0.31 -0.6,-0.51 -0.16,-0.21 -0.24,-0.45 -0.24,-0.73 0,-0.12 0.02,-0.23 0.07,-0.32 0.04,-0.09 0.1,-0.17 0.17,-0.24 0.07,-0.06 0.16,-0.11 0.26,-0.14 0.1,-0.03 0.2,-0.05 0.32,-0.05 0.04,0 0.09,0.01 0.13,0.02 0.04,0 0.08,0.01 0.13,0.03 0.04,0.28 0.12,0.52 0.24,0.74 0.12,0.2 0.26,0.38 0.43,0.51 0.16,0.14 0.35,0.24 0.55,0.31 0.21,0.07 0.41,0.1 0.63,0.1 0.23,0 0.46,-0.04 0.69,-0.12 0.23,-0.08 0.43,-0.2 0.61,-0.37 0.17,-0.16 0.32,-0.37 0.43,-0.62 0.11,-0.25 0.16,-0.53 0.16,-0.86 0,-0.25 -0.04,-0.49 -0.14,-0.72 -0.09,-0.23 -0.24,-0.44 -0.43,-0.62 -0.2,-0.18 -0.44,-0.31 -0.73,-0.42 -0.29,-0.11 -0.63,-0.16 -1.02,-0.16 -0.08,0 -0.15,0 -0.24,0 -0.07,0.01 -0.16,0.01 -0.24,0.02l-0.08 -0.45z"/>
  </a>
  <path class="fil0" d="M276.02 222.2c0.02,0.02 0.05,0.03 0.09,0.06 0.04,0.02 0.08,0.05 0.11,0.07 0.04,0.03 0.07,0.06 0.09,0.09 0.03,0.04 0.04,0.07 0.04,0.1 0,0.01 -0.01,0.03 -0.02,0.04 -0.24,0.34 -0.49,0.63 -0.76,0.87 -0.28,0.24 -0.56,0.45 -0.85,0.61 -0.3,0.16 -0.59,0.28 -0.9,0.36 -0.3,0.08 -0.6,0.12 -0.9,0.12 -0.5,0 -0.97,-0.1 -1.39,-0.31 -0.42,-0.21 -0.78,-0.49 -1.09,-0.85 -0.3,-0.37 -0.54,-0.79 -0.71,-1.27 -0.17,-0.49 -0.26,-1.01 -0.26,-1.57 0,-0.45 0.05,-0.91 0.15,-1.36 0.1,-0.46 0.24,-0.89 0.43,-1.3 0.19,-0.41 0.42,-0.8 0.69,-1.15 0.27,-0.35 0.58,-0.66 0.92,-0.92 0.34,-0.26 0.72,-0.47 1.13,-0.62 0.42,-0.15 0.86,-0.22 1.33,-0.22 0.31,0 0.61,0.04 0.89,0.13 0.29,0.08 0.53,0.2 0.75,0.36 0.21,0.16 0.38,0.36 0.51,0.59 0.12,0.23 0.19,0.5 0.19,0.8 0,0.43 -0.14,0.81 -0.42,1.13 -0.28,0.32 -0.67,0.6 -1.17,0.82 -0.49,0.23 -1.07,0.41 -1.74,0.55 -0.67,0.13 -1.39,0.24 -2.17,0.31l0 0.1c0,0.55 0.07,1.05 0.2,1.49 0.14,0.46 0.33,0.84 0.57,1.16 0.24,0.32 0.52,0.57 0.85,0.75 0.33,0.18 0.68,0.27 1.05,0.27 0.38,0 0.77,-0.1 1.17,-0.29 0.4,-0.19 0.81,-0.49 1.22,-0.92zm-1.2 -5.11c0,-0.19 -0.03,-0.38 -0.1,-0.55 -0.06,-0.17 -0.15,-0.31 -0.27,-0.44 -0.11,-0.13 -0.25,-0.23 -0.41,-0.3 -0.16,-0.07 -0.34,-0.1 -0.52,-0.1 -0.28,0 -0.53,0.04 -0.75,0.14 -0.22,0.1 -0.42,0.23 -0.6,0.4 -0.18,0.17 -0.34,0.36 -0.47,0.59 -0.13,0.22 -0.25,0.46 -0.35,0.7 -0.09,0.26 -0.17,0.51 -0.22,0.77 -0.06,0.27 -0.11,0.53 -0.13,0.78 0.6,-0.05 1.13,-0.12 1.61,-0.22 0.47,-0.11 0.88,-0.24 1.21,-0.4 0.32,-0.17 0.57,-0.36 0.74,-0.59 0.18,-0.23 0.26,-0.49 0.26,-0.78z"/>
  <path id="_1_12" class="fil0" d="M280.85 210.41c-0.17,0.81 -0.32,1.64 -0.44,2.5 -0.12,0.86 -0.23,1.71 -0.31,2.54 0.2,0.01 0.39,0.02 0.58,0.02 0.19,0.01 0.36,0.01 0.52,0.01 0.17,0.01 0.32,0.01 0.45,0.01 0.13,0 0.24,0 0.33,0 0.39,0 0.7,-0.02 0.94,-0.07 0.03,0.07 0.04,0.14 0.06,0.2 0.01,0.06 0.01,0.11 0.01,0.16 0,0.19 -0.07,0.31 -0.23,0.37 -0.15,0.05 -0.37,0.08 -0.67,0.08 -0.27,0 -0.58,-0.02 -0.93,-0.05 -0.34,-0.04 -0.72,-0.07 -1.13,-0.1 -0.05,0.46 -0.08,0.9 -0.11,1.33 -0.04,0.43 -0.06,0.84 -0.08,1.22 -0.02,0.38 -0.04,0.74 -0.05,1.06 0,0.33 0,0.61 0,0.86 0,0.45 0.02,0.86 0.07,1.21 0.04,0.36 0.12,0.66 0.24,0.91 0.12,0.25 0.28,0.44 0.49,0.57 0.2,0.13 0.47,0.2 0.78,0.2 0.23,0 0.49,-0.04 0.77,-0.12 0.28,-0.08 0.6,-0.21 0.96,-0.39 0.11,0.11 0.17,0.25 0.19,0.42 -0.26,0.17 -0.53,0.33 -0.79,0.47 -0.27,0.14 -0.53,0.27 -0.79,0.37 -0.25,0.1 -0.5,0.18 -0.74,0.23 -0.24,0.06 -0.47,0.09 -0.69,0.09 -0.28,0 -0.54,-0.05 -0.77,-0.16 -0.23,-0.1 -0.44,-0.29 -0.61,-0.55 -0.17,-0.27 -0.3,-0.62 -0.4,-1.07 -0.09,-0.46 -0.14,-1.02 -0.14,-1.71 0,-0.39 0,-0.79 0.02,-1.19 0.01,-0.42 0.03,-0.83 0.05,-1.25 0.02,-0.42 0.05,-0.84 0.08,-1.26 0.03,-0.42 0.07,-0.84 0.11,-1.24 -0.33,0 -0.64,0.02 -0.92,0.04 -0.29,0.02 -0.53,0.06 -0.73,0.11 -0.02,-0.03 -0.02,-0.06 -0.02,-0.09 0,-0.09 0.04,-0.17 0.13,-0.25 0.08,-0.08 0.2,-0.15 0.36,-0.22 0.15,-0.06 0.34,-0.11 0.55,-0.15 0.22,-0.05 0.45,-0.08 0.71,-0.09 0.1,-0.89 0.2,-1.73 0.31,-2.52 0.11,-0.79 0.22,-1.49 0.33,-2.11 0.02,-0.11 0.06,-0.2 0.12,-0.28 0.05,-0.07 0.12,-0.12 0.2,-0.17 0.07,-0.04 0.16,-0.07 0.24,-0.09 0.09,-0.02 0.18,-0.02 0.26,-0.02 0.14,0 0.27,0.01 0.38,0.04 0.11,0.03 0.22,0.07 0.31,0.13z"/>
  <path id="_2_13" class="fil0" d="M289.01 217.64c0.12,-0.24 0.18,-0.48 0.18,-0.71 0,-0.17 -0.03,-0.33 -0.09,-0.47 -0.05,-0.15 -0.14,-0.28 -0.26,-0.39 -0.11,-0.11 -0.25,-0.21 -0.42,-0.27 -0.17,-0.07 -0.37,-0.1 -0.6,-0.1 -0.33,0 -0.62,0.06 -0.89,0.18 -0.26,0.11 -0.49,0.27 -0.69,0.48 -0.2,0.2 -0.37,0.44 -0.51,0.7 -0.15,0.27 -0.26,0.56 -0.35,0.86 -0.09,0.31 -0.16,0.62 -0.2,0.94 -0.05,0.32 -0.06,0.63 -0.06,0.94 0,0.55 0.07,1.05 0.21,1.49 0.14,0.45 0.33,0.84 0.57,1.15 0.24,0.32 0.52,0.56 0.84,0.74 0.32,0.17 0.66,0.26 1.03,0.26 0.38,0 0.77,-0.1 1.17,-0.31 0.39,-0.2 0.78,-0.52 1.15,-0.97 0.02,0.01 0.05,0.03 0.09,0.05 0.04,0.02 0.08,0.05 0.12,0.08 0.03,0.03 0.06,0.06 0.08,0.09 0.03,0.03 0.04,0.06 0.04,0.08 0,0.02 0,0.03 0,0.03l-0.02 0.03c-0.41,0.67 -0.9,1.17 -1.47,1.5 -0.58,0.33 -1.21,0.5 -1.89,0.5 -0.37,0 -0.71,-0.06 -1.02,-0.16 -0.32,-0.1 -0.6,-0.25 -0.86,-0.44 -0.25,-0.18 -0.47,-0.4 -0.66,-0.65 -0.2,-0.25 -0.36,-0.53 -0.49,-0.82 -0.12,-0.3 -0.22,-0.61 -0.29,-0.93 -0.06,-0.33 -0.09,-0.66 -0.09,-0.99 0,-0.44 0.05,-0.89 0.14,-1.34 0.1,-0.44 0.24,-0.87 0.43,-1.29 0.19,-0.41 0.42,-0.8 0.68,-1.16 0.27,-0.36 0.57,-0.67 0.92,-0.94 0.34,-0.26 0.71,-0.47 1.12,-0.62 0.41,-0.15 0.85,-0.22 1.31,-0.22 0.35,0 0.67,0.04 0.97,0.12 0.3,0.09 0.56,0.21 0.78,0.36 0.21,0.16 0.39,0.35 0.51,0.56 0.12,0.22 0.19,0.46 0.19,0.73 0,0.18 -0.03,0.33 -0.09,0.47 -0.05,0.13 -0.12,0.24 -0.22,0.34 -0.09,0.09 -0.2,0.16 -0.33,0.22 -0.13,0.04 -0.27,0.07 -0.42,0.07 -0.09,0 -0.19,-0.01 -0.29,-0.03 -0.1,-0.02 -0.2,-0.05 -0.3,-0.09l-0.02 -0.07z"/>
  <path class="fil0" d="M351.76 53.43c-0.11,0.14 -0.23,0.25 -0.36,0.31 -0.13,0.06 -0.26,0.1 -0.4,0.1 -0.21,0 -0.41,-0.05 -0.62,-0.16 -0.2,-0.1 -0.42,-0.26 -0.64,-0.48 -0.33,-0.32 -0.63,-0.69 -0.91,-1.11 -0.29,-0.43 -0.54,-0.89 -0.77,-1.38 -0.24,-0.5 -0.44,-1.02 -0.62,-1.57 -0.18,-0.55 -0.33,-1.12 -0.45,-1.7 -0.13,-0.57 -0.22,-1.16 -0.29,-1.74 -0.06,-0.59 -0.09,-1.17 -0.09,-1.73 0,-1.09 0.09,-2.16 0.28,-3.23 0.19,-1.07 0.47,-2.1 0.84,-3.11 0.38,-1.01 0.84,-1.98 1.4,-2.91 0.55,-0.94 1.2,-1.81 1.94,-2.64l0.45 0.35c-0.61,0.75 -1.14,1.56 -1.61,2.42 -0.46,0.86 -0.85,1.75 -1.16,2.68 -0.31,0.93 -0.55,1.88 -0.7,2.87 -0.16,0.98 -0.24,1.97 -0.24,2.97 0,0.59 0.03,1.19 0.09,1.8 0.06,0.62 0.15,1.23 0.29,1.83 0.13,0.61 0.3,1.21 0.5,1.8 0.21,0.59 0.46,1.16 0.75,1.7 0.3,0.54 0.63,1.05 1.02,1.53 0.38,0.48 0.81,0.91 1.29,1.3l0.01 0.1z"/>
  <path id="_1_14" class="fil0" d="M391.39 32.49c0.12,-0.14 0.24,-0.25 0.37,-0.31 0.13,-0.07 0.26,-0.1 0.4,-0.1 0.21,0 0.41,0.06 0.61,0.16 0.21,0.11 0.42,0.26 0.65,0.48 0.32,0.33 0.63,0.69 0.91,1.12 0.28,0.42 0.53,0.88 0.76,1.37 0.23,0.5 0.44,1.02 0.62,1.57 0.18,0.56 0.33,1.12 0.46,1.69 0.12,0.58 0.22,1.16 0.28,1.75 0.07,0.59 0.1,1.16 0.1,1.73 0,1.09 -0.09,2.17 -0.28,3.24 -0.19,1.06 -0.47,2.1 -0.85,3.11 -0.37,1 -0.83,1.97 -1.39,2.9 -0.55,0.93 -1.2,1.82 -1.94,2.64l-0.45 -0.35c0.61,-0.76 1.14,-1.56 1.6,-2.42 0.47,-0.85 0.85,-1.75 1.17,-2.68 0.31,-0.93 0.55,-1.89 0.71,-2.87 0.15,-0.98 0.23,-1.97 0.23,-2.97 0,-0.59 -0.03,-1.19 -0.09,-1.8 -0.06,-0.61 -0.16,-1.23 -0.29,-1.83 -0.13,-0.61 -0.3,-1.21 -0.51,-1.8 -0.21,-0.58 -0.46,-1.15 -0.75,-1.69 -0.29,-0.54 -0.63,-1.05 -1.01,-1.53 -0.38,-0.48 -0.81,-0.92 -1.29,-1.31l-0.02 -0.1z"/>
  <path id="_2_15" class="fil0" d="M352.49 40.81c0.29,-0.1 0.56,-0.19 0.83,-0.27 0.25,-0.08 0.5,-0.15 0.71,-0.2 0.21,-0.07 0.4,-0.11 0.56,-0.14 0.16,-0.03 0.28,-0.04 0.37,-0.04 0.13,0 0.26,0.02 0.37,0.05 0.12,0.04 0.23,0.12 0.34,0.23 0.11,0.11 0.21,0.26 0.31,0.46 0.11,0.19 0.21,0.44 0.32,0.75 0.12,0.38 0.25,0.73 0.38,1.06 0.12,0.34 0.25,0.67 0.37,1 0.26,-0.54 0.53,-1.03 0.8,-1.47 0.27,-0.45 0.54,-0.82 0.81,-1.13 0.28,-0.32 0.55,-0.56 0.83,-0.73 0.28,-0.17 0.57,-0.26 0.87,-0.26 0.19,0 0.35,0.03 0.5,0.09 0.14,0.05 0.26,0.13 0.36,0.22 0.1,0.1 0.18,0.21 0.22,0.33 0.05,0.12 0.08,0.25 0.08,0.38 0,0.18 -0.05,0.36 -0.14,0.54 -0.08,0.17 -0.22,0.32 -0.4,0.45l-0.05 0c-0.08,-0.1 -0.16,-0.17 -0.24,-0.23 -0.08,-0.06 -0.17,-0.1 -0.25,-0.13 -0.09,-0.03 -0.17,-0.06 -0.25,-0.07 -0.08,-0.01 -0.16,-0.01 -0.24,-0.01 -0.25,0 -0.49,0.07 -0.72,0.21 -0.22,0.14 -0.45,0.34 -0.67,0.59 -0.21,0.25 -0.42,0.55 -0.63,0.9 -0.2,0.34 -0.4,0.71 -0.61,1.12 0.2,0.55 0.38,1.03 0.55,1.45 0.17,0.41 0.33,0.77 0.47,1.08 0.15,0.3 0.29,0.56 0.44,0.76 0.13,0.2 0.28,0.37 0.42,0.49 0.14,0.12 0.29,0.21 0.45,0.26 0.16,0.05 0.32,0.08 0.51,0.08 0.13,0 0.25,-0.01 0.35,-0.01 0.11,-0.01 0.22,-0.03 0.32,-0.05 0.1,-0.01 0.21,-0.04 0.32,-0.07 0.12,-0.04 0.25,-0.08 0.38,-0.13l0.13 0.36c-0.2,0.14 -0.42,0.27 -0.65,0.39 -0.23,0.11 -0.47,0.21 -0.7,0.29 -0.24,0.09 -0.47,0.15 -0.7,0.19 -0.22,0.05 -0.43,0.07 -0.63,0.07 -0.27,0 -0.52,-0.07 -0.74,-0.2 -0.21,-0.13 -0.42,-0.34 -0.61,-0.64 -0.2,-0.29 -0.4,-0.66 -0.6,-1.11 -0.2,-0.45 -0.42,-1 -0.66,-1.63 -0.3,0.53 -0.59,1.02 -0.88,1.47 -0.3,0.44 -0.59,0.83 -0.89,1.15 -0.29,0.32 -0.59,0.57 -0.89,0.75 -0.3,0.17 -0.6,0.26 -0.9,0.26 -0.19,0 -0.35,-0.02 -0.49,-0.07 -0.14,-0.05 -0.25,-0.12 -0.35,-0.21 -0.09,-0.08 -0.16,-0.18 -0.21,-0.29 -0.05,-0.12 -0.07,-0.23 -0.07,-0.35 0,-0.15 0.03,-0.3 0.09,-0.45 0.07,-0.15 0.16,-0.28 0.29,-0.42 0.23,0.08 0.43,0.14 0.61,0.17 0.18,0.04 0.34,0.06 0.49,0.06 0.27,0 0.53,-0.07 0.78,-0.21 0.25,-0.13 0.49,-0.32 0.73,-0.57 0.24,-0.25 0.47,-0.55 0.7,-0.91 0.23,-0.35 0.46,-0.74 0.7,-1.17 -0.08,-0.21 -0.15,-0.42 -0.23,-0.63 -0.07,-0.22 -0.16,-0.45 -0.25,-0.69 -0.09,-0.24 -0.18,-0.49 -0.28,-0.76 -0.09,-0.27 -0.2,-0.56 -0.31,-0.86 -0.09,-0.26 -0.19,-0.48 -0.29,-0.64 -0.09,-0.16 -0.19,-0.29 -0.3,-0.38 -0.11,-0.1 -0.22,-0.16 -0.35,-0.2 -0.12,-0.03 -0.26,-0.04 -0.41,-0.04 -0.14,0 -0.3,0.01 -0.48,0.04 -0.18,0.03 -0.38,0.07 -0.6,0.12l-0.09 -0.45z"/>
  <path id="_3_16" class="fil0" d="M368.43 52.31c0.25,-0.13 0.49,-0.3 0.71,-0.5 0.22,-0.2 0.41,-0.41 0.57,-0.65 0.15,-0.23 0.28,-0.46 0.37,-0.71 0.09,-0.25 0.14,-0.48 0.14,-0.71 0,-0.18 -0.03,-0.34 -0.08,-0.45 -0.05,-0.12 -0.11,-0.22 -0.19,-0.3 -0.07,-0.08 -0.15,-0.15 -0.24,-0.21 -0.09,-0.06 -0.17,-0.12 -0.25,-0.19 -0.07,-0.07 -0.13,-0.16 -0.18,-0.25 -0.05,-0.1 -0.08,-0.22 -0.08,-0.38 0,-0.14 0.03,-0.26 0.07,-0.39 0.05,-0.12 0.12,-0.22 0.21,-0.32 0.08,-0.09 0.19,-0.16 0.31,-0.22 0.11,-0.05 0.25,-0.08 0.4,-0.08 0.21,0 0.39,0.05 0.55,0.14 0.16,0.1 0.29,0.22 0.4,0.37 0.1,0.15 0.18,0.32 0.23,0.51 0.05,0.2 0.08,0.39 0.08,0.59 0,0.34 -0.06,0.7 -0.17,1.09 -0.12,0.39 -0.29,0.77 -0.52,1.15 -0.23,0.36 -0.51,0.72 -0.86,1.05 -0.34,0.33 -0.73,0.6 -1.19,0.82l-0.28 -0.36z"/>
  <path id="_4_17" class="fil0" d="M380.21 49.4c-0.11,-0.4 -0.22,-0.82 -0.35,-1.26 -0.12,-0.44 -0.25,-0.89 -0.38,-1.33 -0.13,-0.45 -0.26,-0.89 -0.38,-1.32 -0.13,-0.43 -0.26,-0.85 -0.38,-1.24 -0.12,-0.39 -0.23,-0.75 -0.34,-1.08 -0.11,-0.33 -0.2,-0.62 -0.29,-0.87 -0.09,-0.25 -0.17,-0.45 -0.26,-0.61 -0.08,-0.16 -0.16,-0.28 -0.25,-0.37 -0.09,-0.09 -0.18,-0.15 -0.28,-0.19 -0.1,-0.03 -0.21,-0.05 -0.32,-0.05 -0.14,0 -0.28,0.02 -0.44,0.05 -0.15,0.03 -0.34,0.07 -0.55,0.12l-0.1 -0.46c0.26,-0.09 0.5,-0.18 0.75,-0.25 0.24,-0.08 0.46,-0.15 0.67,-0.2 0.21,-0.06 0.39,-0.1 0.55,-0.13 0.16,-0.03 0.29,-0.04 0.38,-0.04 0.11,0 0.22,0.01 0.32,0.05 0.1,0.04 0.19,0.11 0.29,0.2 0.09,0.1 0.19,0.23 0.27,0.4 0.09,0.16 0.18,0.38 0.27,0.63 0.06,0.16 0.13,0.37 0.21,0.62 0.08,0.26 0.17,0.54 0.27,0.86 0.1,0.32 0.2,0.67 0.31,1.05 0.11,0.38 0.22,0.77 0.33,1.18 0.11,0.41 0.23,0.83 0.34,1.26 0.11,0.43 0.21,0.85 0.31,1.27 0.22,-0.56 0.44,-1.13 0.66,-1.74 0.23,-0.61 0.47,-1.21 0.71,-1.82 0.24,-0.62 0.48,-1.22 0.71,-1.82 0.24,-0.6 0.47,-1.18 0.68,-1.73 0.04,-0.09 0.09,-0.17 0.16,-0.22 0.06,-0.06 0.14,-0.11 0.22,-0.15 0.08,-0.04 0.16,-0.06 0.25,-0.07 0.09,-0.02 0.17,-0.03 0.25,-0.03 0.14,0 0.28,0.03 0.41,0.06 0.13,0.04 0.26,0.1 0.37,0.15 -0.19,0.32 -0.38,0.66 -0.59,1.04 -0.2,0.38 -0.42,0.78 -0.63,1.21 -0.21,0.43 -0.43,0.89 -0.65,1.35 -0.22,0.47 -0.43,0.95 -0.65,1.43 -0.21,0.49 -0.43,0.98 -0.63,1.47 -0.21,0.49 -0.42,0.97 -0.61,1.45 -0.2,0.47 -0.38,0.95 -0.56,1.42 -0.18,0.47 -0.35,0.92 -0.52,1.36 -0.17,0.44 -0.34,0.86 -0.5,1.27 -0.16,0.41 -0.33,0.78 -0.49,1.14 -0.16,0.32 -0.34,0.63 -0.52,0.91 -0.18,0.28 -0.38,0.52 -0.6,0.73 -0.22,0.21 -0.46,0.37 -0.73,0.49 -0.26,0.12 -0.55,0.18 -0.87,0.18 -0.2,0 -0.38,-0.03 -0.54,-0.08 -0.16,-0.06 -0.3,-0.13 -0.41,-0.21 -0.11,-0.09 -0.2,-0.19 -0.26,-0.31 -0.06,-0.11 -0.09,-0.23 -0.09,-0.36 0,-0.14 0.05,-0.28 0.13,-0.44 0.08,-0.14 0.19,-0.26 0.32,-0.34 0.18,0.11 0.36,0.2 0.54,0.24 0.18,0.05 0.35,0.07 0.49,0.07 0.35,0 0.65,-0.09 0.92,-0.28 0.27,-0.19 0.52,-0.47 0.76,-0.85 0.24,-0.38 0.47,-0.85 0.71,-1.42 0.24,-0.57 0.5,-1.24 0.8,-2l0.12 -0.34 -0.31 -0.05z"/>
  <path id="_5_18" class="fil0" d="M362.87 45.28c0,-0.1 -0.01,-0.18 -0.02,-0.25 -0.01,-0.06 -0.04,-0.11 -0.06,-0.15 -0.04,-0.04 -0.07,-0.07 -0.12,-0.08 -0.04,-0.02 -0.09,-0.03 -0.15,-0.03 -0.09,0 -0.19,0.01 -0.31,0.03 -0.11,0.03 -0.25,0.06 -0.4,0.1l-0.05 -0.25c0.17,-0.06 0.33,-0.12 0.48,-0.16 0.15,-0.05 0.29,-0.1 0.42,-0.13 0.13,-0.04 0.25,-0.06 0.34,-0.08 0.1,-0.02 0.18,-0.03 0.24,-0.03 0.13,0 0.24,0.04 0.31,0.12 0.08,0.08 0.12,0.22 0.12,0.42 0,0.02 0,0.08 -0.01,0.16 0,0.09 -0.01,0.2 -0.02,0.33 0,0.14 -0.01,0.29 -0.03,0.46 -0.01,0.17 -0.02,0.35 -0.04,0.54 -0.01,0.2 -0.03,0.4 -0.05,0.6 -0.02,0.21 -0.04,0.41 -0.06,0.62l0.02 0c0.18,-0.6 0.37,-1.12 0.58,-1.54 0.2,-0.41 0.41,-0.75 0.62,-1.02 0.21,-0.26 0.42,-0.44 0.63,-0.56 0.21,-0.11 0.41,-0.17 0.6,-0.17 0.13,0 0.25,0.02 0.38,0.07 0.12,0.05 0.23,0.13 0.32,0.24 0.1,0.11 0.17,0.25 0.23,0.42 0.06,0.17 0.08,0.38 0.08,0.62 0,0.07 0,0.16 -0.01,0.28 -0.01,0.12 -0.02,0.25 -0.03,0.4 -0.01,0.15 -0.02,0.3 -0.04,0.47 -0.01,0.16 -0.03,0.32 -0.04,0.48 -0.01,0.16 -0.02,0.31 -0.03,0.45 -0.01,0.14 -0.01,0.27 -0.01,0.37 0,0.19 0.01,0.34 0.02,0.45 0.02,0.12 0.04,0.21 0.08,0.28 0.03,0.06 0.08,0.11 0.14,0.13 0.06,0.03 0.13,0.04 0.21,0.04 0.12,0 0.25,-0.01 0.38,-0.05 0.13,-0.03 0.27,-0.08 0.4,-0.14l0.07 0.18c-0.09,0.07 -0.19,0.14 -0.32,0.21 -0.13,0.07 -0.27,0.14 -0.41,0.19 -0.14,0.06 -0.28,0.11 -0.42,0.15 -0.14,0.04 -0.27,0.05 -0.38,0.05 -0.12,0 -0.22,-0.03 -0.3,-0.1 -0.07,-0.07 -0.12,-0.16 -0.16,-0.28 -0.03,-0.12 -0.06,-0.26 -0.07,-0.41 -0.01,-0.16 -0.02,-0.33 -0.02,-0.51 0,-0.22 0.01,-0.45 0.03,-0.69 0.01,-0.23 0.03,-0.45 0.05,-0.67 0.02,-0.21 0.04,-0.4 0.05,-0.58 0.01,-0.17 0.02,-0.31 0.02,-0.41 0,-0.28 -0.05,-0.48 -0.15,-0.61 -0.11,-0.13 -0.24,-0.2 -0.41,-0.2 -0.14,0 -0.28,0.06 -0.43,0.18 -0.15,0.11 -0.3,0.27 -0.45,0.47 -0.15,0.2 -0.29,0.44 -0.43,0.72 -0.14,0.27 -0.26,0.57 -0.37,0.89 -0.11,0.32 -0.2,0.65 -0.28,1 -0.07,0.35 -0.12,0.7 -0.13,1.05l-0.74 0.09 -0.06 0c0.02,-0.23 0.04,-0.47 0.06,-0.74 0.01,-0.26 0.03,-0.53 0.04,-0.8 0.02,-0.27 0.03,-0.54 0.04,-0.81 0.01,-0.27 0.02,-0.52 0.03,-0.75 0.01,-0.23 0.01,-0.44 0.01,-0.62 0.01,-0.19 0.01,-0.34 0.01,-0.44z"/>
  <path id="_6_19" class="fil0" d="M386.31 45.28c0,-0.1 -0.01,-0.18 -0.03,-0.25 -0.01,-0.06 -0.03,-0.11 -0.06,-0.15 -0.03,-0.04 -0.07,-0.07 -0.11,-0.08 -0.05,-0.02 -0.1,-0.03 -0.16,-0.03 -0.09,0 -0.19,0.01 -0.3,0.03 -0.12,0.03 -0.25,0.06 -0.4,0.1l-0.06 -0.25c0.17,-0.06 0.33,-0.12 0.48,-0.16 0.16,-0.05 0.3,-0.1 0.43,-0.13 0.13,-0.04 0.24,-0.06 0.34,-0.08 0.1,-0.02 0.17,-0.03 0.23,-0.03 0.14,0 0.24,0.04 0.32,0.12 0.07,0.08 0.11,0.22 0.11,0.42 0,0.02 0,0.08 0,0.16 -0.01,0.09 -0.01,0.2 -0.02,0.33 -0.01,0.14 -0.02,0.29 -0.03,0.46 -0.01,0.17 -0.03,0.35 -0.04,0.54 -0.02,0.2 -0.04,0.4 -0.05,0.6 -0.02,0.21 -0.04,0.41 -0.06,0.62l0.02 0c0.18,-0.6 0.37,-1.12 0.57,-1.54 0.2,-0.41 0.41,-0.75 0.62,-1.02 0.21,-0.26 0.42,-0.44 0.63,-0.56 0.21,-0.11 0.41,-0.17 0.6,-0.17 0.13,0 0.26,0.02 0.38,0.07 0.12,0.05 0.23,0.13 0.33,0.24 0.09,0.11 0.17,0.25 0.22,0.42 0.06,0.17 0.09,0.38 0.09,0.62 0,0.07 -0.01,0.16 -0.01,0.28 -0.01,0.12 -0.02,0.25 -0.03,0.4 -0.02,0.15 -0.03,0.3 -0.04,0.47 -0.02,0.16 -0.03,0.32 -0.05,0.48 -0.01,0.16 -0.02,0.31 -0.03,0.45 0,0.14 -0.01,0.27 -0.01,0.37 0,0.19 0.01,0.34 0.03,0.45 0.01,0.12 0.04,0.21 0.07,0.28 0.04,0.06 0.08,0.11 0.14,0.13 0.06,0.03 0.13,0.04 0.22,0.04 0.12,0 0.25,-0.01 0.38,-0.05 0.13,-0.03 0.26,-0.08 0.39,-0.14l0.07 0.18c-0.08,0.07 -0.19,0.14 -0.32,0.21 -0.13,0.07 -0.26,0.14 -0.41,0.19 -0.14,0.06 -0.28,0.11 -0.42,0.15 -0.14,0.04 -0.27,0.05 -0.37,0.05 -0.13,0 -0.23,-0.03 -0.3,-0.1 -0.07,-0.07 -0.13,-0.16 -0.17,-0.28 -0.03,-0.12 -0.06,-0.26 -0.06,-0.41 -0.02,-0.16 -0.02,-0.33 -0.02,-0.51 0,-0.22 0.01,-0.45 0.02,-0.69 0.02,-0.23 0.03,-0.45 0.05,-0.67 0.02,-0.21 0.04,-0.4 0.05,-0.58 0.02,-0.17 0.03,-0.31 0.03,-0.41 0,-0.28 -0.06,-0.48 -0.16,-0.61 -0.1,-0.13 -0.24,-0.2 -0.41,-0.2 -0.14,0 -0.28,0.06 -0.43,0.18 -0.15,0.11 -0.3,0.27 -0.45,0.47 -0.15,0.2 -0.29,0.44 -0.43,0.72 -0.14,0.27 -0.26,0.57 -0.37,0.89 -0.11,0.32 -0.2,0.65 -0.27,1 -0.08,0.35 -0.12,0.7 -0.14,1.05l-0.74 0.09 -0.05 0c0.02,-0.23 0.03,-0.47 0.05,-0.74 0.02,-0.26 0.03,-0.53 0.05,-0.8 0.01,-0.27 0.02,-0.54 0.03,-0.81 0.01,-0.27 0.02,-0.52 0.03,-0.75 0.01,-0.23 0.02,-0.44 0.02,-0.62 0,-0.19 0.01,-0.34 0.01,-0.44z"/>
  <path class="fil0" d="M436.37 277.98c0.29,-0.1 0.57,-0.19 0.83,-0.27 0.26,-0.08 0.5,-0.15 0.71,-0.21 0.22,-0.06 0.41,-0.1 0.57,-0.13 0.16,-0.03 0.28,-0.04 0.37,-0.04 0.13,0 0.25,0.02 0.37,0.05 0.11,0.04 0.22,0.12 0.33,0.23 0.11,0.11 0.21,0.26 0.32,0.46 0.1,0.19 0.21,0.44 0.31,0.75 0.13,0.38 0.25,0.73 0.38,1.06 0.13,0.34 0.25,0.67 0.37,1 0.27,-0.54 0.54,-1.03 0.81,-1.48 0.26,-0.44 0.54,-0.81 0.81,-1.13 0.27,-0.31 0.55,-0.55 0.83,-0.72 0.28,-0.18 0.57,-0.26 0.86,-0.26 0.19,0 0.36,0.03 0.51,0.08 0.14,0.06 0.26,0.14 0.36,0.23 0.1,0.1 0.17,0.2 0.22,0.33 0.05,0.12 0.07,0.25 0.07,0.38 0,0.18 -0.04,0.36 -0.13,0.54 -0.09,0.17 -0.23,0.32 -0.41,0.45l-0.05 0c-0.07,-0.1 -0.15,-0.17 -0.23,-0.23 -0.09,-0.06 -0.17,-0.11 -0.25,-0.14 -0.09,-0.03 -0.17,-0.05 -0.25,-0.06 -0.09,-0.01 -0.16,-0.01 -0.24,-0.01 -0.25,0 -0.49,0.07 -0.72,0.21 -0.23,0.14 -0.45,0.34 -0.67,0.59 -0.22,0.25 -0.42,0.55 -0.63,0.9 -0.2,0.34 -0.41,0.71 -0.61,1.12 0.2,0.55 0.38,1.03 0.55,1.45 0.16,0.41 0.32,0.77 0.47,1.08 0.15,0.3 0.29,0.55 0.43,0.76 0.14,0.2 0.28,0.36 0.42,0.49 0.15,0.12 0.3,0.21 0.45,0.26 0.16,0.05 0.33,0.07 0.51,0.07 0.13,0 0.25,0 0.36,0 0.11,-0.01 0.21,-0.03 0.31,-0.05 0.11,-0.02 0.22,-0.05 0.33,-0.08 0.12,-0.03 0.24,-0.07 0.38,-0.13l0.13 0.37c-0.2,0.14 -0.42,0.27 -0.65,0.39 -0.24,0.11 -0.47,0.21 -0.71,0.29 -0.24,0.08 -0.47,0.15 -0.69,0.19 -0.23,0.05 -0.44,0.07 -0.63,0.07 -0.28,0 -0.52,-0.07 -0.74,-0.2 -0.22,-0.13 -0.42,-0.35 -0.62,-0.64 -0.2,-0.29 -0.39,-0.66 -0.59,-1.11 -0.2,-0.45 -0.42,-1 -0.66,-1.63 -0.3,0.53 -0.59,1.02 -0.89,1.47 -0.29,0.44 -0.59,0.83 -0.89,1.15 -0.29,0.31 -0.59,0.57 -0.89,0.74 -0.29,0.18 -0.59,0.27 -0.9,0.27 -0.18,0 -0.35,-0.02 -0.48,-0.07 -0.14,-0.06 -0.26,-0.12 -0.35,-0.21 -0.09,-0.09 -0.16,-0.18 -0.22,-0.29 -0.04,-0.12 -0.07,-0.23 -0.07,-0.36 0,-0.14 0.04,-0.29 0.1,-0.44 0.06,-0.15 0.16,-0.29 0.28,-0.43 0.23,0.09 0.43,0.15 0.62,0.18 0.17,0.04 0.34,0.06 0.48,0.06 0.28,0 0.54,-0.07 0.78,-0.21 0.25,-0.13 0.49,-0.33 0.73,-0.57 0.24,-0.26 0.47,-0.56 0.7,-0.91 0.24,-0.35 0.47,-0.74 0.71,-1.18 -0.08,-0.2 -0.15,-0.41 -0.23,-0.63 -0.08,-0.21 -0.17,-0.44 -0.25,-0.68 -0.09,-0.24 -0.18,-0.49 -0.28,-0.76 -0.1,-0.27 -0.2,-0.56 -0.31,-0.86 -0.1,-0.27 -0.19,-0.48 -0.29,-0.64 -0.09,-0.16 -0.2,-0.29 -0.31,-0.39 -0.1,-0.09 -0.22,-0.15 -0.34,-0.19 -0.13,-0.03 -0.27,-0.05 -0.42,-0.05 -0.13,0 -0.29,0.02 -0.48,0.05 -0.18,0.03 -0.38,0.07 -0.59,0.12l-0.1 -0.45z"/>
  <path class="fil0" d="M28.13 12.89c-0.11,-0.4 -0.22,-0.82 -0.35,-1.26 -0.12,-0.44 -0.25,-0.89 -0.38,-1.33 -0.13,-0.45 -0.26,-0.89 -0.38,-1.32 -0.13,-0.43 -0.26,-0.85 -0.38,-1.24 -0.12,-0.39 -0.23,-0.75 -0.34,-1.08 -0.11,-0.33 -0.2,-0.62 -0.29,-0.87 -0.09,-0.25 -0.17,-0.45 -0.25,-0.61 -0.09,-0.16 -0.17,-0.28 -0.26,-0.37 -0.09,-0.09 -0.18,-0.15 -0.28,-0.19 -0.1,-0.03 -0.2,-0.05 -0.32,-0.05 -0.14,0 -0.28,0.02 -0.44,0.05 -0.15,0.03 -0.33,0.07 -0.55,0.12l-0.1 -0.46c0.26,-0.09 0.51,-0.18 0.75,-0.25 0.24,-0.08 0.46,-0.15 0.67,-0.2 0.21,-0.06 0.39,-0.1 0.56,-0.13 0.16,-0.03 0.28,-0.04 0.38,-0.04 0.1,0 0.21,0.01 0.31,0.05 0.1,0.04 0.19,0.11 0.29,0.2 0.09,0.1 0.19,0.23 0.27,0.4 0.09,0.16 0.18,0.38 0.27,0.63 0.06,0.16 0.13,0.37 0.21,0.62 0.09,0.26 0.17,0.54 0.27,0.86 0.1,0.32 0.2,0.67 0.31,1.05 0.11,0.38 0.22,0.77 0.34,1.18 0.1,0.41 0.22,0.83 0.33,1.26 0.11,0.43 0.21,0.85 0.31,1.27 0.22,-0.56 0.44,-1.13 0.67,-1.74 0.22,-0.61 0.46,-1.21 0.7,-1.82 0.24,-0.62 0.48,-1.22 0.71,-1.82 0.24,-0.6 0.47,-1.18 0.68,-1.73 0.04,-0.09 0.09,-0.17 0.16,-0.22 0.06,-0.06 0.14,-0.11 0.22,-0.15 0.08,-0.04 0.16,-0.06 0.25,-0.07 0.09,-0.02 0.17,-0.03 0.25,-0.03 0.14,0 0.28,0.03 0.41,0.06 0.13,0.04 0.26,0.1 0.37,0.15 -0.19,0.32 -0.38,0.66 -0.59,1.04 -0.2,0.38 -0.41,0.78 -0.63,1.21 -0.21,0.43 -0.43,0.89 -0.65,1.35 -0.22,0.47 -0.43,0.95 -0.65,1.43 -0.21,0.49 -0.43,0.98 -0.63,1.47 -0.21,0.49 -0.41,0.97 -0.61,1.45 -0.2,0.47 -0.38,0.95 -0.56,1.42 -0.18,0.47 -0.35,0.92 -0.52,1.36 -0.17,0.44 -0.34,0.86 -0.5,1.27 -0.16,0.41 -0.33,0.78 -0.49,1.14 -0.16,0.32 -0.34,0.63 -0.52,0.91 -0.18,0.28 -0.38,0.52 -0.6,0.73 -0.22,0.21 -0.46,0.37 -0.73,0.49 -0.26,0.12 -0.55,0.18 -0.87,0.18 -0.2,0 -0.38,-0.03 -0.54,-0.08 -0.16,-0.06 -0.3,-0.13 -0.41,-0.21 -0.11,-0.09 -0.19,-0.19 -0.26,-0.31 -0.06,-0.11 -0.09,-0.23 -0.09,-0.36 0,-0.14 0.05,-0.28 0.13,-0.44 0.08,-0.14 0.19,-0.26 0.32,-0.34 0.18,0.11 0.36,0.2 0.54,0.24 0.19,0.05 0.35,0.07 0.49,0.07 0.35,0 0.66,-0.09 0.92,-0.28 0.27,-0.19 0.52,-0.47 0.76,-0.85 0.24,-0.38 0.47,-0.85 0.71,-1.42 0.24,-0.57 0.5,-1.24 0.8,-2l0.12 -0.34 -0.31 -0.05z"/>
 </g>
</svg>
